<?xml version="1.0" encoding="utf-8"?>
<!-- Generator: Adobe Illustrator 13.0.2, SVG Export Plug-In . SVG Version: 6.00 Build 14948)  -->
<!DOCTYPE svg PUBLIC "-//W3C//DTD SVG 1.1//EN" "http://www.w3.org/Graphics/SVG/1.1/DTD/svg11.dtd">
<svg version="1.1" xmlns="http://www.w3.org/2000/svg" xmlns:xlink="http://www.w3.org/1999/xlink" x="0px" y="0px"
	 width="359.397px" height="323.465px" viewBox="0 0 359.397 323.465" enable-background="new 0 0 359.397 323.465"
	 xml:space="preserve">
<g id="Background">
</g>
<g id="Guides">
</g>
<g id="Badge">
	<g>
		<rect x="244.793" y="152.443" fill-rule="evenodd" clip-rule="evenodd" width="25.576" height="34.504"/>
		<rect x="89.027" y="152.443" fill-rule="evenodd" clip-rule="evenodd" width="25.579" height="34.504"/>
		<g>
			<path fill-rule="evenodd" clip-rule="evenodd" fill="#FFCC4E" d="M20.356,161.732c0,87.982,71.579,159.562,159.561,159.562
				c42.619,0,82.69-16.598,112.827-46.734c30.137-30.139,46.735-70.206,46.735-112.827c0-87.982-71.579-159.561-159.562-159.561
				C91.935,2.172,20.356,73.75,20.356,161.732z M79.199,162.166c0-55.774,45.376-101.151,101.151-101.151
				c55.774,0,101.151,45.376,101.151,101.151c0,55.777-45.377,101.15-101.151,101.15C124.576,263.315,79.199,217.942,79.199,162.166
				z"/>
		</g>
		<g>
			<path fill-rule="evenodd" clip-rule="evenodd" d="M78.569,161.733c0,55.884,45.466,101.349,101.349,101.349
				c55.883,0,101.349-45.465,101.349-101.349c0-55.884-45.466-101.349-101.349-101.349
				C124.035,60.384,78.569,105.849,78.569,161.733z M82.912,161.733c0-53.49,43.518-97.006,97.006-97.006
				c53.489,0,97.007,43.517,97.007,97.006c0,53.488-43.519,97.005-97.007,97.005C126.429,258.738,82.912,215.221,82.912,161.733z"/>
		</g>
		<g>
			<path fill-rule="evenodd" clip-rule="evenodd" fill="#C9252C" d="M74.384,56.199C46.195,84.389,30.67,121.868,30.67,161.733
				c0,82.294,66.953,149.247,149.247,149.247c39.866,0,77.344-15.524,105.535-43.713c28.188-28.191,43.714-65.669,43.714-105.534
				c0-39.865-15.526-77.344-43.714-105.534c-28.19-28.189-65.669-43.713-105.535-43.713C140.053,12.486,102.573,28.01,74.384,56.199
				z M69.756,161.733c0-29.425,11.459-57.09,32.266-77.896c20.807-20.806,48.471-32.265,77.896-32.265
				c29.425,0,57.09,11.459,77.896,32.265c20.808,20.807,32.267,48.472,32.267,77.896c0,60.744-49.419,110.162-110.163,110.162
				C119.174,271.895,69.756,222.477,69.756,161.733z"/>
		</g>
		<g>
			<g>
				<path fill-rule="evenodd" clip-rule="evenodd" d="M177.229,68.21c-17.856,26.097-65.769,3.667-66.251,3.437
					c-1.117-0.532-2.439-0.386-3.414,0.379c-0.795,0.625-1.246,1.574-1.246,2.562c0,0.22,0.022,0.442,0.069,0.664
					c4.869,23.373,6.235,42.63,6.235,56.883c0,16.79-1.893,26.623-2.193,28.067c-6.31,15.832-8.892,28.573-8.892,38.928
					c0,22.978,12.67,34.24,25.3,41.643c13.482,7.905,24.791,12.085,34.769,15.772c6.374,2.356,11.879,4.391,16.788,6.989
					c0.953,0.504,2.094,0.505,3.049,0c4.908-2.599,10.413-4.633,16.785-6.989c9.98-3.688,21.287-7.867,34.771-15.772
					c12.63-7.401,25.298-18.665,25.298-41.642c0-10.355-2.58-23.095-8.891-38.929c-0.301-1.444-2.192-11.277-2.192-28.066
					c0-14.253,1.367-33.511,6.234-56.884c0.045-0.221,0.068-0.443,0.068-0.664c0-0.988-0.45-1.937-1.245-2.562
					c-0.974-0.765-2.299-0.911-3.414-0.379c-0.483,0.23-48.395,22.66-66.251-3.437c-0.608-0.888-1.613-1.419-2.689-1.419
					C178.843,66.791,177.836,67.322,177.229,68.21z M179.917,75.313c18.054,20.46,52.321,9.995,65.975,4.664
					c-4.03,21.292-5.255,38.925-5.255,52.271c0,18.506,2.288,28.854,2.459,29.602c0.038,0.165,0.089,0.327,0.15,0.483
					c6.055,15.116,8.535,27.055,8.535,36.629c0,19.752-10.558,29.438-22.078,36.192c-12.985,7.612-24.009,11.686-33.732,15.28
					c-5.972,2.206-11.187,4.166-16.054,6.595c-4.867-2.429-10.08-4.389-16.053-6.595c-9.724-3.595-20.747-7.668-33.732-15.28
					c-11.521-6.755-22.08-16.44-22.08-36.192c0-9.574,2.48-21.513,8.535-36.629c0.063-0.156,0.114-0.318,0.151-0.483
					c0.171-0.748,2.459-11.096,2.459-29.604c0-13.346-1.225-30.979-5.256-52.27C127.598,85.309,161.863,95.773,179.917,75.313z"/>
			</g>
			<g>
				<path fill-rule="evenodd" clip-rule="evenodd" d="M177.229,68.21c-17.856,26.097-65.769,3.667-66.251,3.437
					c-1.117-0.532-2.439-0.386-3.414,0.379c-0.795,0.625-1.246,1.574-1.246,2.562c0,0.22,0.022,0.442,0.069,0.664
					c4.869,23.373,6.235,42.63,6.235,56.883c0,16.79-1.893,26.623-2.193,28.067c-6.31,15.832-8.892,28.573-8.892,38.928
					c0,22.978,12.67,34.24,25.3,41.643c13.482,7.905,24.791,12.085,34.769,15.772c6.374,2.356,11.879,4.391,16.788,6.989
					c0.953,0.504,2.094,0.505,3.049,0c4.908-2.599,10.413-4.633,16.785-6.989c9.98-3.688,21.287-7.867,34.771-15.772
					c12.63-7.401,25.298-18.665,25.298-41.642c0-10.355-2.58-23.095-8.891-38.929c-0.301-1.444-2.192-11.277-2.192-28.066
					c0-14.253,1.367-33.511,6.234-56.884c0.045-0.221,0.068-0.443,0.068-0.664c0-0.988-0.45-1.937-1.245-2.562
					c-0.974-0.765-2.299-0.911-3.414-0.379c-0.483,0.23-48.395,22.66-66.251-3.437c-0.608-0.888-1.613-1.419-2.689-1.419
					C178.843,66.791,177.836,67.322,177.229,68.21z M179.917,75.313c18.054,20.46,52.321,9.995,65.975,4.664
					c-4.03,21.292-5.255,38.925-5.255,52.271c0,18.506,2.288,28.854,2.459,29.602c0.038,0.165,0.089,0.327,0.15,0.483
					c6.055,15.116,8.535,27.055,8.535,36.629c0,19.752-10.558,29.438-22.078,36.192c-12.985,7.612-24.009,11.686-33.732,15.28
					c-5.972,2.206-11.187,4.166-16.054,6.595c-4.867-2.429-10.08-4.389-16.053-6.595c-9.724-3.595-20.747-7.668-33.732-15.28
					c-11.521-6.755-22.08-16.44-22.08-36.192c0-9.574,2.48-21.513,8.535-36.629c0.063-0.156,0.114-0.318,0.151-0.483
					c0.171-0.748,2.459-11.096,2.459-29.604c0-13.346-1.225-30.979-5.256-52.27C127.598,85.309,161.863,95.773,179.917,75.313z"/>
			</g>
		</g>
		<g>
			<g>
				<g>
					<path fill-rule="evenodd" clip-rule="evenodd" d="M179.917,256.551c-12.304-6.516-28.228-9.41-49.218-21.715
						c-16.117-9.447-33.294-26.057-14.278-73.532c0,0,7.041-30.694-3.816-82.808c0,0,48.494,23.161,67.313-4.343
						c18.819,27.504,67.314,4.343,67.314,4.343c-10.857,52.114-3.818,82.808-3.818,82.808c19.018,47.476,1.839,64.086-14.277,73.532
						C208.146,247.141,192.222,250.035,179.917,256.551z"/>
					<g>
						<path fill-rule="evenodd" clip-rule="evenodd" fill="#FFCC4E" d="M177.53,72.518c-17.196,25.131-63.216,3.585-63.679,3.365
							c-0.993-0.474-2.169-0.343-3.034,0.337c-0.708,0.555-1.108,1.398-1.108,2.277c0,0.195,0.02,0.394,0.061,0.59
							c4.663,22.381,5.971,40.825,5.971,54.478c0,16.135-1.826,25.571-2.106,26.921c-6.029,15.123-8.495,27.287-8.495,37.17
							c0,21.898,12.065,32.628,24.095,39.679c12.884,7.553,23.696,11.549,33.235,15.074c6.108,2.257,11.381,4.206,16.094,6.699
							c0.845,0.449,1.861,0.449,2.708,0c4.712-2.493,9.986-4.442,16.094-6.699c9.539-3.525,20.352-7.521,33.234-15.074
							c12.029-7.051,24.094-17.78,24.094-39.679c0-9.884-2.464-22.048-8.494-37.17c-0.28-1.35-2.105-10.785-2.105-26.919
							c0-13.653,1.308-32.097,5.972-54.48c0.041-0.196,0.06-0.395,0.06-0.59c0-0.878-0.399-1.722-1.105-2.277
							c-0.866-0.68-2.042-0.811-3.036-0.337c-0.463,0.221-46.481,21.767-63.677-3.365c-0.539-0.789-1.436-1.26-2.39-1.26
							C178.962,71.257,178.067,71.729,177.53,72.518z M179.917,78.851c17.316,19.933,50.638,9.499,63.43,4.448
							c-3.915,20.539-5.104,37.537-5.104,50.377c0,17.679,2.184,27.561,2.349,28.275c0.033,0.147,0.078,0.29,0.136,0.429
							c5.807,14.504,8.188,25.962,8.188,35.155c0,18.99-10.159,28.306-21.243,34.804c-12.443,7.293-23,11.194-32.314,14.639
							c-5.749,2.125-10.764,4.008-15.441,6.351c-4.675-2.343-9.689-4.226-15.44-6.351c-9.314-3.444-19.872-7.346-32.313-14.639
							c-11.085-6.498-21.245-15.813-21.245-34.805c0-9.192,2.38-20.651,8.189-35.154c0.056-0.139,0.101-0.282,0.135-0.429
							c0.164-0.714,2.349-10.598,2.349-28.278c0-12.839-1.188-29.836-5.104-50.375C129.28,88.349,162.602,98.784,179.917,78.851z"/>
					</g>
				</g>
				<g>
					<g>
						<path fill-rule="evenodd" clip-rule="evenodd" fill="#FFCC4E" d="M115.5,161.009c-1.6,0-2.895,1.296-2.895,2.895
							c0,1.599,1.295,2.895,2.895,2.895h128.836c1.601,0,2.896-1.296,2.896-2.895c0-1.599-1.295-2.895-2.896-2.895H115.5z"/>
					</g>
				</g>
				<g>
					<g>
						<path fill-rule="evenodd" clip-rule="evenodd" fill="#FFCC4E" d="M177.022,74.153v182.035c0,1.6,1.297,2.896,2.896,2.896
							c1.601,0,2.895-1.297,2.895-2.896V74.153c0-1.599-1.294-2.896-2.895-2.896C178.319,71.257,177.022,72.554,177.022,74.153z"/>
					</g>
				</g>
			</g>
			<g>
				<g>
					<polygon fill="#FFFFFF" points="206.717,210.664 209.16,210.664 209.16,187.535 214.859,187.535 214.859,210.664 
						217.302,210.664 217.302,199.46 223.003,199.46 223.003,210.664 225.445,210.664 225.445,199.46 231.146,199.46 
						231.146,210.664 235.217,210.664 235.217,215.152 189.617,215.152 189.617,210.664 192.874,210.664 192.874,187.535 
						198.574,187.535 198.574,210.664 201.017,210.664 201.017,173.441 206.717,173.441 					"/>
				</g>
				<g>
					<path fill="#FFFFFF" d="M222.731,219.374c-1.306,0.568-2.79,1.212-3.586,1.212c-0.788,0-2.188-0.64-3.425-1.204
						c-1.503-0.687-2.924-1.334-4.027-1.334c-1.109,0-2.631,0.661-4.238,1.358c-1.272,0.552-2.714,1.18-3.437,1.18
						c-0.789,0-2.21-0.641-3.463-1.205c-1.523-0.687-2.962-1.333-4.063-1.333c-1.275,0-2.826,0.87-4.321,1.709
						c-0.889,0.499-1.727,0.97-2.44,1.229c-0.374,0.137-0.568,0.552-0.433,0.928c0.138,0.376,0.552,0.569,0.928,0.433
						c0.824-0.3,1.754-0.821,2.654-1.327c1.271-0.715,2.714-1.523,3.612-1.523c0.79,0,2.213,0.64,3.468,1.204
						c1.522,0.686,2.957,1.333,4.058,1.333c1.024,0,2.476-0.631,4.011-1.299c1.338-0.581,2.853-1.238,3.664-1.238
						c0.79,0,2.19,0.639,3.429,1.203c1.501,0.687,2.923,1.334,4.023,1.334c1.098,0,2.586-0.646,4.164-1.329
						c1.307-0.567,2.791-1.208,3.583-1.208c1.226,0,4.411,1.708,6.132,2.784c0.337,0.211,0.783,0.109,0.997-0.23
						c0.211-0.338,0.109-0.785-0.23-0.997c-0.489-0.307-4.855-3.005-6.898-3.005C225.799,218.048,224.31,218.693,222.731,219.374z"
						/>
				</g>
				<g>
					<path fill="#FFFFFF" d="M222.731,223.718c-1.306,0.568-2.79,1.211-3.586,1.211c-0.788,0-2.188-0.64-3.425-1.203
						c-1.503-0.687-2.924-1.335-4.027-1.335c-1.109,0-2.631,0.661-4.238,1.358c-1.272,0.551-2.714,1.18-3.437,1.18
						c-0.789,0-2.21-0.641-3.463-1.204c-1.523-0.687-2.962-1.334-4.063-1.334c-1.296,0-2.882,0.832-4.417,1.639
						c-0.85,0.447-1.653,0.866-2.345,1.119c-0.374,0.137-0.568,0.552-0.433,0.928c0.138,0.375,0.552,0.569,0.928,0.432
						c0.784-0.284,1.628-0.727,2.523-1.198c1.315-0.69,2.805-1.472,3.743-1.472c0.79,0,2.213,0.642,3.468,1.205
						c1.522,0.685,2.957,1.334,4.058,1.334c1.024,0,2.476-0.631,4.011-1.3c1.338-0.58,2.853-1.239,3.664-1.239
						c0.79,0,2.19,0.64,3.429,1.204c1.501,0.686,2.923,1.335,4.023,1.335c1.098,0,2.586-0.646,4.164-1.33
						c1.307-0.566,2.791-1.209,3.583-1.209c1.229,0,4.305,1.599,5.956,2.608c0.342,0.208,0.786,0.1,0.996-0.241
						s0.102-0.786-0.241-0.994c-0.472-0.288-4.674-2.82-6.711-2.82C225.799,222.391,224.31,223.037,222.731,223.718z"/>
				</g>
			</g>
			<g>
				<path fill-rule="evenodd" clip-rule="evenodd" fill="#FFCC4E" d="M223.153,103.396c0.807,0,0.888,0.74,1.245,1.612
					c-0.635,0.024-1.319,0.806-1.319,0.806s-1.049-0.073-1.539,0.488c-0.294-0.439-0.536-0.879-0.536-1.416
					C221.004,104.044,222.31,103.396,223.153,103.396z M225.325,108.938c0.582-0.56,0.124-1.147-0.221-2.025
					c-0.475,0.424-1.511,0.337-1.511,0.337s-0.704,0.782-1.444,0.717c0.093,0.521,0.224,1.006,0.597,1.393
					C223.333,109.966,224.72,109.523,225.325,108.938z M213.164,104.021c1.13,0.642,1.802-0.58,3.604,0.732
					c-2.352-0.06-1.78,0.603-2.696,0.603c-0.532,0-0.876-0.48-1.334-0.725C212.783,104.493,213.118,104.157,213.164,104.021z
					 M211.309,105.938c0.807-0.929,3.103,2.295,2.271,3.345c-0.35,0.441-1.712,0.254-2.32,0.122c-1.465-0.316,0-1.367-2.76-2.686
					C209.256,106.743,210.827,106.49,211.309,105.938z M209.438,119.941c0,0-0.157-1.288,0.03-2.075
					c0.308-1.302,1.312-1.771,1.923-2.84c-2.291,0.55-3.603,0.245-5.687,1.152c-0.617,0.27-1.197,0.558-1.428,0.985
					c0.645-1.832,1.485-2.536,4.092-2.564c2.84-0.03,5.313-0.702,7.104-1.474c-0.786,0.71-1.158,0.946-1.952,1.465
					c-1.101,0.718-1.526,1.084-2.282,1.993C210.29,117.726,209.927,118.873,209.438,119.941z M217.487,111.515
					c-1.466,4.977-3.344,4.852-5.139,7.228c-1.184,1.565-1.481,4.481-1.488,4.282c0,0-0.295-1.566-0.091-2.535
					c0.206-0.984,0.588-1.472,1.131-2.32c1.029-1.611,2.41-2.442,3.479-3.45C215.514,114.594,216.877,112.828,217.487,111.515z
					 M202.954,124.295c0.86-0.022,1.32-0.834,2.201-0.237c-0.795,1.081-1.341,1.444-2.249,1.49c-0.694,0.036-1.063-0.726-1.76-0.716
					c-0.726,0.01-1.501,0.835-1.83,0.835c0.219-0.597,0.389-1.281,0.757-1.609C201.343,122.924,201.829,124.324,202.954,124.295z
					 M208.402,129.232l0.464,1.561l3.162-0.464l0.08,1.799l2.925-0.082l-0.144,1.002l-3.673,0.476l-0.335-1.574l-3.482,0.334
					l0.096-1.575c0,0-0.86-0.286-1.431-0.429C206.517,130.163,208.402,129.232,208.402,129.232z M221.697,135.376
					c0,0,0.619,3.816-2.814,5.152l-1.768-0.525c3.104-1.049,3.438-5.009,3.438-5.009L221.697,135.376z M219.172,109.194
					c0.763,5.924-2.744,8.261-4.122,10.9c-1.068,2.045-1.557,2.686-1.77,5.862c-0.271-1.101-0.245-1.954-0.185-2.901
					c0.066-1.021,0.671-2.503,1.374-3.694c0.956-1.62,2.017-2.682,2.871-3.877C219.08,113.042,218.744,111.484,219.172,109.194z
					 M200.806,104.716c0.302,1.058,0.491,1.98,0.438,2.784c-0.072,1.099-0.928,1.733-1.146,3.103
					c1.002-0.221,1.471,1.13,2.247,2.173c0.374,0.505,1.562,1.319,1.562,1.955c0,0.476-1.231,0.633-1.928,1.172
					c-0.623,0.483-1.173,0.708-1.467,1.392c0.712-0.501,1.14-0.753,1.922-1.13c0.695-0.335,1.206-0.53,1.841-0.726
					c0.373-0.115,0.641-0.972,1.093-1.423c0.867-0.868,1.983-1.068,2.932-1.172c0,0,0.953,0.037,1.562,0
					c1.745-0.108,3.287-0.517,4.354-1.068c0.709-0.366,1.148-0.782,1.563-1.514c0.126-0.223,0.294-0.978,0.098-1.392
					c-0.538,1.783-1.708,2.307-3.42,2.491c-1.808,0.196-2.003-0.146-3.247-0.049c-0.524,0.042-0.954,0.562-1.222,0.514
					c-0.558-0.102-0.667-0.776-0.659-1.369c0.013-0.993,0.689-1.483,1.928-1.661l0.025-0.342c-0.66-0.342-1.465,0-2.442-0.098
					c-1.283-0.134-2.589-0.977-2.589-2.272c0-0.598,0.243-1.087,0.586-1.563c0.268,0.562,0.418,1.042,0.952,1.465
					c0.511,0.404,0.905,0.281,1.563,0.587c0.099-0.562-0.12-1.029-0.022-1.587c0.195-1.148,1.343-0.574,1.928-1.27
					c-0.073-0.11-0.172-0.306-0.243-0.416c-0.268,0.159-0.501,0.39-0.832,0.39c-0.34,0-0.476-0.373-0.487-0.708
					c-0.016-0.495,0.505-0.71,0.995-0.788c0.422-0.066,0.856,0.021,1.398,0.08c0.994,0.107,1.66,0.489,2.509,0.506
					c0.649,0.014,0.092-0.726,0.741-0.726c0.927,0,2.165,0.238,3.07,0.432c0.695,0.147,1.196,0.244,1.665,0.789
					c0.436-1.253,2.049-1.315,2.396-0.318c1.062-0.66,1.738-1.619,2.995-1.619c1.491,0,2.126,1.637,2.2,3.127
					c1.494-0.507,1.937,1.911,0.542,2.107c0.71,0.549,1.118,1.238,1.118,2.143c0,0.892-0.297,1.569-1.076,2.002
					c-1.018,0.568-1.751,0.398-2.85,0.398c0.154,1.229-1.625,1.733-1.636,1.636c0,0,0.316,2.075,0.193,2.736
					c-0.317,1.71-0.928,2.833-1.292,4.689c-0.193,0.971-0.038,1.906-0.074,2.322c0,0,0.023,0.391-0.344,0.414
					c-0.248,0.017-0.372-0.593-0.665-0.593c-0.671,0-2.094,3.084-2.099,4.104c-0.006,0.352,0.406,1.079,0.492,1.472
					c0.063,0.275-0.219,0.366-0.463,0.196c-1.687-1.051-1.319-1.832-1.415-2.467c-0.23-1.489,2.19-5.359,3.539-8.305
					c1.048-2.857,1.686-5.54-0.094-9.127c0.046,0.1,0.544,1.231,0.631,2.777c0.099,1.701,0.172,2.638-0.537,4.665
					c-0.735,2.099-2.438,4.813-3.101,6.034c-0.605,1.115-1.027,2.186-1.027,3.419c0,0.879,0,1.392,0.317,2.271
					c0.292,0.801,0.602,0.948,1.124,1.368c1.123,0.903,2.034,1.343,2.2,1.44c1.13,0.667,2.389,1.492,3.394,2.834
					c0.514,0.684,0.563,1.612,1.221,1.587c2.039-0.075,2.786-2.271,2.786-4.372c0-1.779-1.3-4.755-1.931-7.84
					c-0.077-0.38-0.131-0.593-0.195-0.977c-0.108-0.662-0.171-1.001-0.171-1.71c0-3.212,2.571-6.074,5.783-6.063
					c2.032,0.006,4.578,1.771,4.623,4.305l0.113,2.144c0.046,0.866,0.624,1.066,0.88,1.807c0.212,0.611,0.393,0.965,0.393,1.612
					c0,2.931-2.616,3.824-3.715,6.546c-0.16,0.397-0.304,0.606-0.39,1.025c-0.098,0.479-0.017,1.253-0.017,1.253
					c-0.636-0.501-1.063-0.77-1.32-1.54c0,0-0.07-0.251-0.098-0.416c-0.063-0.365-0.047-0.581-0.024-0.952
					c0.109-1.779,1.21-2.341,2.149-4.03c0.242-0.439,0.188-1.008,0.188-1.008c-0.357,0.788-1.146,1.149-1.75,1.985
					c-0.353,0.486-0.435,0.617-0.829,1.294c-0.246-0.367-0.368-0.705-0.442-1.197c-0.22-1.477,1.516-2.345,1.85-3.354
					c0.034-0.102-0.193-0.195-0.193-0.195c-1.167,0.52-1.266,1.081-1.876,1.79c-0.12-0.269-0.322-0.514-0.317-0.879
					c0.024-1.538,0.66-2.247,0.928-2.588c0.609-0.774,0.874-0.886,1.655-1.253c0.537-0.244,0.66-0.295,1.104-0.407
					c0.081-0.516-0.039-1.337-0.039-1.337c-0.028-1.599-1.29-2.766-2.89-2.766c-2.188,0-3.86,1.868-3.86,4.054
					c0,0.977,0.342,2.345,0.342,2.345c0.732,3.297,2.101,6.18,2.119,8.175c0.019,2.194-0.392,3.713-1.954,5.276
					c-0.843,0.842-1.598,1.041-2.485,1.619c-0.563,0.366-0.393,0.928-0.544,1.507c-0.235,0.894-0.806,1.808-1.758,2.834
					c-0.857,0.928-1.817,1.21-2.119,2.4c-0.271,1.077,1.383,1.894,2.509,1.605l1.447,2.108c-2.469,2.931-5.227,6.509-6.349,7.18
					c-0.525,0.318-0.941-0.121-1.466,0.196c-0.403,0.245-0.354,0.586-0.831,0.586c-0.524,0-0.549-0.171-1.075-0.171
					c-0.267,0-0.487,0.294-0.756,0.294c-0.174,0-0.428-0.233-0.587-0.27c0,0,0.471-1.35,0.923-1.911
					c-0.014-0.122-0.051-0.184-0.099-0.293c-0.697,0.599-0.97,1.643-1.897,1.667l-0.93,0.024c-0.256,0.007-0.523,0.208-0.733,0.343
					c-0.158-0.171-0.365-0.22-0.365-0.465c0-0.622,0.271-1.196,0.8-1.764l-0.098-0.586c-0.505,1.252-1.436,1.179-2.411,1.595
					c-0.099-0.147-0.271-0.404-0.271-0.586c0-0.721,0.478-0.977,0.881-1.564c0.514-0.745,0.978-1.612,1.637-1.612h1.856
					c0.658,0,0.828-0.66,1.49-0.66c0.988,0,1.343,1.124,2.148,1.344c0.601,0.164,2.438-2.277,2.076-2.955
					c-0.334-0.628-0.696-0.306-1.393-0.489c0.123-0.012-0.804-0.26-1.222-0.438c-1.928-0.831-2.085-1.71-2.612-3.299
					c-0.343,0.343-0.488,0.514-0.61,1.125c-1.562-1.026-0.595-2.035-0.983-3.207c-0.086,0.122-0.629,0.764-0.873,1.399
					c-0.488-0.44-0.661-1.039-0.661-1.71c0-1.002,0.204-1.599,0.783-2.418c0.587-0.831,1.703-1.721,2.783-2.369
					c0.309-0.185,1.286-0.646,1.98-1.271c0.687-0.619,1.246-1.368,1.172-1.709c-0.294,0.316-0.872,0.89-1.589,1.44
					c-0.633,0.489-0.993,0.654-1.782,0.782c-0.904,0.147-1.81-0.452-2.856-1.001c-0.953-0.5-1.639-0.733-2.64-1.124
					c0,0-0.538-0.139-0.732,0.073c-0.066,0.073-0.121,0.135-0.121,0.22c0,0.696,1.515,0.269,1.605,0.653
					c0.029,0.13-0.551,0.416-0.384,0.666c0.145,0.22,0.962-0.02,1.561,0.098c1.015,0.198,2.015,0.38,2.42,1.074
					c0.341,0.586-1.906,1.49-3.127,2.321c-0.188,0.129-0.688,0.469-1.351,1.019c-0.844,0.696-1.556,1.459-1.556,2.571
					c0,1.112,1.063,1.587,2.076,1.563l1.142,1.777c-0.995,1.423-2.9,3.657-3.463,4.427c-0.807,1.099-1.804,2.003-2.76,2.003
					c-1.073,0-0.781,0.513-1.344,0.659c-0.428,0.11-0.866-0.049-1.317-0.049c-0.39,0-0.44,0.452-0.831,0.452
					c-0.158,0-0.242-0.048-0.415-0.171c0,0,0.082-0.507,0.165-0.825c0.176-0.676,0.684-0.965,0.684-1.661
					c-0.676,0.348-0.935,1.241-1.605,1.619c-0.637,0.354-0.782-0.22-1.71,0.341l-0.488,0.025c0,0-0.196-0.61-0.049-0.953
					c0.219-0.513,0.518-0.554,0.61-1c0.049-0.235,0.018-0.618,0.018-0.618c-0.604,1.253-1.576,0.801-2.411,1.497
					c-0.147,0.122-0.306-0.208-0.464-0.293c0.78-1.661,1.278-3.29,3.054-3.517c0.387-0.05,0.758,0.17,1.148,0.17
					c0.621,0,0.438-0.39,1.022-0.684c0.664-0.331,1.323-0.22,1.883,0.269c0.391,0.341,0.666,1.126,1.171,0.831
					c0.448-0.263,0.49-0.562,0.978-1.173c0.415-0.61,0.759-0.807,0.759-1.466c0-1.02-2.2-0.374-3.201-1.172
					c-1.684-1.344-1.196-2.272-1.3-3.354c-0.312,0.276-0.507,0.57-0.775,0.887c-0.244-0.293-0.244-0.721-0.244-1.002
					c0-0.647,0.513-2.027,0.513-2.027c-0.39,0.098-1.149,0.635-1.149,0.635s-0.165-0.527-0.12-0.953
					c0.176-1.776,2.026-3.504,4.225-4.298c1.538-0.551,2.375-0.507,3.956-0.831c-0.513-0.343-1.344-0.611-1.855-0.855
					c-1.352-0.644-1.931-1.051-3.005-2.149c-0.561-0.573-0.805-0.956-1.149-1.759c0,0,1.272-0.342,2.103-0.416
					c0.845-0.073,2.173,0.049,2.173,0.049l0.537,0.635l2.078-1.05l0.928,0.855l2.344-1.832l-0.438-0.219l-1.687,1.148l-0.685-0.685
					l-2.076,0.733l-0.56-0.342c-0.277-0.062-1.635,0.241-2.689,0.293c-1.17,0.057-1.834,0.047-3.003-0.049l0.317,1.148
					c-0.028,0.006-0.059,0.367-0.294,0.292c-0.694-0.217-2.215-1.028-2.881-1.758c-0.074,0.122-0.293,0.147-0.293,0.293
					c0,0.306,0.347,0.897,0.309,1.043l-0.211,0.496c-1.245-0.904-2.28-2.527-4.177-2.492c-0.775,0.015-1.272,0.058-1.93,0.465
					c-0.512,0.314-0.476,1.114-1.075,1.099c-0.727-0.019-0.757-0.959-0.807-1.685c-0.122-1.857,2.174-2.272,1.637-2.833
					c-0.211-0.221-0.824,0.135-1.759,0.781c-0.317,0.22-0.551-0.453-0.511-0.758c0.201-1.555,2.3-2.339,2.387-2.399
					c-0.392-0.256-1.633,0.176-1.484-0.312c0.439-1.44,1.733-1.563,2.468-1.66c1.312,0,2.71,0.366,3.247,0.805
					c0.468,0.382,1.296,1.295,1.296,1.295c0,0.122-0.426,0.504-0.22,0.708c0.22,0.22,0.957-0.011,1.758-0.098
					c1.123-0.123,1.34-0.065,2.197-0.098c-0.17-0.146-0.395-0.273-0.291-0.562c0.171-0.488,1.439-1.05,2.44-1.465
					c-0.254-0.073-1.563,0.171-1.563,0.171c-0.024-0.238-0.018-0.376,0.024-0.611c0.108-0.58,0.472-0.921,0.782-1.294
					c-1.415,0.195-1.771-0.523-1.978-1.099c-0.44-1.221-0.573-1.779-0.731-2.955c-0.097-0.704,0.016-1.583-0.131-1.815
					c-0.237,0.154-0.237,0.764-0.505,0.691c-0.593-0.161-1.516-1.539-1.905-2.149c-0.156-0.241-0.239-0.604-0.051-0.732
					c0.538-0.367,1.174,0.194,1.516,0.146c0.538-0.077-0.05-0.636,0.731-1.563c0.568-0.673,1.017-0.858,1.808-0.977
					c-0.586-0.439-1.184-0.122-1.514-0.122c-0.465,0-0.048-1.295,0.978-2.271c-2.003,0.904-1.671,2.527-2.075,3.542
					c-0.196,0.488-1.271,0.488-2.206,0.212c-0.654-0.104-0.989-0.403-1.312-0.946c-0.358-0.599-0.253-1.101-0.147-1.783
					c0.099-0.635,0.538-1.709,1.222-1.661c0.523,0.038-0.245,1.271,1.368,2.638c-0.124-0.318-0.956-1.594-0.732-2.638
					c0.262-1.226,1.344-2.418,2.271-2.272c0.377,0.06-0.084,0.928,0.074,1.271c0.499-0.793,0.955-1.404,1.879-1.441
					c0.811-0.032,1.285,0.381,1.832,0.978C200.27,103.568,200.708,104.374,200.806,104.716z"/>
				<g>
					<path fill-rule="evenodd" clip-rule="evenodd" fill="#C9252C" d="M207.213,99.4l-1.16-1.384
						c-0.314-0.371-0.274-0.919,0.085-1.222c0.339-0.284,0.84-0.254,1.158,0.055c0.073-0.015,1.227-0.785,1.302-0.806
						c0.805-0.22,1.29,0.565,1.124,1.149c-0.049,0.17-1.127,1.013-1.18,1.138c0.288,0.371,0.242,0.898-0.112,1.193
						C208.07,99.828,207.523,99.772,207.213,99.4z"/>
					<path fill-rule="evenodd" clip-rule="evenodd" fill="#C9252C" d="M204.865,101.159l-1.158-1.384
						c-0.313-0.372-0.273-0.919,0.089-1.222c0.336-0.284,0.836-0.254,1.155,0.055c0.073-0.016,0.148-0.024,0.226-0.024
						c0.609,0,1.103,0.493,1.103,1.099c0,0.144-0.03,0.28-0.079,0.406c0.284,0.372,0.238,0.897-0.112,1.193
						C205.726,101.587,205.179,101.531,204.865,101.159z"/>
					<path fill-rule="evenodd" clip-rule="evenodd" fill="#C9252C" d="M193.528,109.527c-0.759-0.146-1.254-0.446-1.54-1.172
						c-1.021,0.861-2.468,1.856-5.373,4.25c-0.367,0.317-0.754,0.69-0.586,1.173c0.127,0.365,0.338,0.655,0.781,0.61
						c0.488-0.049,0.586-0.171,1.172-0.61C189.546,112.63,193.528,109.527,193.528,109.527z"/>
					<path fill="#C9252C" d="M201.371,101.238c-0.15-0.344-0.067-0.753,0.227-1c0.338-0.284,0.836-0.253,1.153,0.056
						c0.074-0.016,0.15-0.023,0.228-0.023c0.609,0,1.101,0.492,1.101,1.099c0,0.144-0.027,0.281-0.078,0.406
						c0.286,0.371,0.239,0.898-0.112,1.193c-0.314,0.264-0.769,0.256-1.087,0.005l-1.726,1.375c-0.173-0.904-0.661-1.49-1.443-1.881
						L201.371,101.238z"/>
				</g>
				<g>
					<path fill-rule="evenodd" clip-rule="evenodd" fill="#FFFFFF" d="M190.516,127.497c1.187,0.013,2.156,0.837,2.148,2.15
						c0,0-0.193,2.186-0.098,3.321c0.038,0.524,0.18,1.546-0.356,1.546c-0.797,0-1.162-0.489-1.956-0.538
						c-0.537-0.037-0.839-0.046-1.368,0.024c0.709,0.293,1.532,0.205,1.467,1.294c-0.068,1.082-0.215,1.824-0.879,1.662
						c-1.295-0.318-2.639-1.015-2.639-2.394c0-0.903,0.451-1.612,0.732-2.467c0.307-0.928,0.806-2.443,0.806-2.443
						C188.716,128.554,188.863,127.479,190.516,127.497z"/>
					<path fill-rule="evenodd" clip-rule="evenodd" fill="#FFFFFF" d="M194.723,120.762c0.625,0,0.602-0.752,0.881-1.294
						c0.257-0.499,0.562-1.124,0.513-1.344c-0.102-0.458-0.921-0.334-1.172-0.268c-0.46,0.122-0.586,0.623-0.758,0.952l0.098-1.294
						c0.245-0.378,0.434-0.837,0.434-1.301c0-0.904-1.044-1.385-1.76-1.514c-0.77-0.139-1.659,0-1.659,0
						c-0.783,0-1.509,0.666-1.509,1.448c0,0.802,0.097,1.757,0.147,2.857c0.316-0.007,1.769-0.022,2.784,0.391
						C193.597,119.751,194.343,120.762,194.723,120.762z"/>
				</g>
			</g>
			<g>
				<g>
					<path fill-rule="evenodd" clip-rule="evenodd" fill="#FFFFFF" d="M135.257,107.423c0.517,0.894,1.394,0.983,1.91,1.877
						c0.814,1.411-0.264,2.72,0.551,4.131c1.132,1.96,4.7,3.358,6.952,3.526c-0.639-0.975-2.47-3.113-3.026-4.076
						c-0.775-1.341-0.779-1.863-1.554-3.205c-0.597-1.031-0.891-1.779-0.926-2.95c0.147-0.223,1.529,2.647,2.543,4.401
						c1.41,2.442,2.142,3.946,4.234,5.903c2.175-1.988,1.383-5.299-0.187-8.015c-0.557-0.963-1.916-1.183-2.472-2.145
						c-0.715-1.238-0.335-2.329-1.051-3.567c-1.331-2.304-4.078-1.819-5.409-4.124c-0.458-0.79-0.558-1.283-1.015-2.074
						c-1.421,0.63-1.039,2.25-1.125,3.768C134.513,103.357,133.985,105.222,135.257,107.423z"/>
					<path fill-rule="evenodd" clip-rule="evenodd" fill="#FFFFFF" d="M151.483,106.007c1.119-0.852,2.054-0.807,3.285-1.485
						c1.094-0.604,1.636-1.561,2.69-1.739c0.817-0.136,1.8,0.79,1.88,0.929c0.381,0.658,1,1.439,1.657,1.059
						c1.023-0.589,0.684-1.887,1.706-2.477c1.076-0.622,1.459,1.397,2.674,1.142c0,0,0.506-0.56,0.942-0.693
						c0.952-0.29,1.367,1.75,2.22,1.257c0.294-0.17,0.251-0.472,0.477-0.724c1.107-1.234,2.657,2.274,0.285,4.241
						c0,0-1.553,0.672-1.833,0.834c-0.937,0.542-2.367-0.09-3.407,0.175c-1.128,0.278-1.761,0.569-2.77,1.151
						c-0.629,0.363-1.399,0.938-1.035,1.568c0.372,0.643,1.215-0.031,1.859-0.402c0.532-0.307,1.041-0.88,1.485-1.305
						c1.388,3.696-1.581,7.183-4.954,9.129c-2.434,1.406-4.408,1.09-7.19,0.345c3.526-2.036,2.718-5.956,5.667-8.797
						c-0.452-0.298-0.833-0.861-1.31-0.587c-0.475,0.275-0.543,0.707-0.828,1.15c-0.496,0.791-0.77,1.285-1.146,2.154
						c-0.997,2.311-1.626,4-3.824,5.268c-0.938,0.541-2.241,0.901-2.782-0.036c-0.202-0.35,0.359-0.542,0.525-0.901
						c0.379-0.797,0.511-1.377,0.559-2.263c0.089-1.396,0.031-2.239,0.07-3.625C148.466,108.925,149.562,107.473,151.483,106.007z"
						/>
					<path fill-rule="evenodd" clip-rule="evenodd" fill="#FFFFFF" d="M134.726,116.8c-1.44,0.337-2.309,0.546-3.538,1.371
						c-1.016,0.681-1.562,1.368-2.243,2.191c-0.526,0.639-0.215,1.953-0.135,2.092c0.38,0.658,0.245,1.214,0.089,1.965
						c-0.363,1.748-2.518,2.2-3.346,3.125c0,0-0.738,0.158-1.073,0.47c-0.726,0.679,0.833,2.056-0.019,2.549
						c-0.294,0.17-0.68-0.23-0.867,0.052c-1.274,1.93,2.151,2.658,3.532,2.365c0,0,1.358-1.008,1.639-1.17
						c0.937-0.541,1.105-2.093,1.855-2.862c0.804-0.837,1.374-1.241,2.381-1.823c0.629-0.363,1.512-0.742,1.876-0.112
						c0.372,0.644-0.633,1.037-1.276,1.409c-0.532,0.306-1.438-0.003-1.875,0.633c-2.874,4.198,7.014,2.222,10.387,0.274
						c2.435-1.406,4.533-3.848,5.278-6.63c-3.527,2.036-7.903-0.047-11.84,1.087c-0.033-0.541-0.331-1.152,0.146-1.428
						c0.476-0.274,0.883-0.118,1.411-0.143c0.932-0.034,1.497-0.025,2.438,0.085c2.5,0.292,4.278,0.591,6.476-0.677
						c0.937-0.542,1.901-1.489,1.359-2.428c-0.202-0.35-0.649,0.04-1.042,0.004c-0.881-0.069-1.448-0.246-2.24-0.647
						c-1.254-0.62-1.833-1.306-3.176-1.75C138.628,116.046,137.08,116.251,134.726,116.8z"/>
					<path fill-rule="evenodd" clip-rule="evenodd" fill="#FFFFFF" d="M149.938,120.778c2.572,1.964,4.74,2.391,6.399,5.263
						c0.612,1.058,0.734,2.174,0.088,2.996l-1.119,0.646c-1.189,0.172-2.036,0.256-3.137-0.518
						c-0.572-0.409-0.703-0.893-1.155-1.483l-0.932-1.612c-0.406-1.221-0.603-1.98-0.656-3.204c-0.03-0.633,0.123-1.08-0.216-1.667
						c-0.194-0.335-0.894-0.447-0.986-0.415c0.176,0.659,0.064,1.082,0.104,1.73c0.078,1.59,0.4,2.569,0.295,4.13
						c-0.152,2.192-2.024,3.475-0.851,5.506c0.504,0.873,1.479,0.49,2.095,1.299c-0.648,0.979-0.766,2.166-0.076,3.358
						c0.301,0.521,0.859,0.938,1.292,0.687c0.434-0.25,0.255-0.819,0.43-1.323l0.185-0.196c0.433,1.653,0.582,2.687,1.445,4.182
						c0.33,0.571,0.986,0.865,1.461,0.59c0.224-0.129,0.219-0.395,0.444-0.524c0.251-0.146,0.549,0.175,0.723,0.478
						c0.214,0.369,0.274,0.603,0.488,0.973c0.514,0.89,1.455,1.13,2.275,0.836l0.895-0.517c-0.252-0.728-0.34-1.237-0.125-1.898
						l0.56-0.323c0.169,0.26,0.29,0.371,0.444,0.64c0.242,0.419,0.209,0.751,0.452,1.171c0.496,0.856,1.557,0.982,2.232,0.503
						c0.187-0.064,0.28-0.162,0.448-0.258c0.546-0.315,0.903-0.7,0.899-1.416c-0.009-0.599-0.447-1.354,0.03-1.629
						c0.797-0.461,1.518,0.735,2.402,0.427c0.559-0.628,0.621-1.765-0.088-2.429c-0.348-0.324-0.66-0.348-1.009-0.673
						c-0.222-0.208-0.303-0.352-0.516-0.574l0.394-0.533c0.647-0.115,1.104,0.064,1.734,0.452l0.629-0.854
						c0.41-0.81,0.347-1.84-0.39-2.529c-0.305-0.287-0.512-0.39-0.818-0.676c-0.25-0.234-0.497-0.601-0.32-0.841
						c0.157-0.213,0.403-0.164,0.56-0.376c0.335-0.454,0.174-1.191-0.3-1.634c-1.237-1.159-2.168-1.49-3.625-2.222l0.213-0.162
						c0.496-0.1,0.991,0.185,1.295-0.229c0.306-0.414,0.015-1.07-0.417-1.474c-0.986-0.924-2.104-1.002-3.119-0.486
						c-0.645-0.783-0.126-1.741-0.85-2.418c-1.682-1.575-3.184,0.175-5.237-0.035c-1.463-0.153-2.949-1.609-4.405-1.959
						C149.907,119.406,149.938,120.778,149.938,120.778z"/>
					<path fill-rule="evenodd" clip-rule="evenodd" fill="#FFFFFF" d="M161.716,122.041c0.299,0.521,0.874,0.189,1.378,0.189
						c0.49,0.008,0.792,0.238,1.289,0.421c0.567,0.209,1.097,0.219,1.425,0.789c0.601,1.042,0.069,1.865-0.385,2.82
						c0.498,0.475,1.001,0.25,1.584,0.161c0.931-0.134,1.539-0.149,2.489,0.174c1.062,0.351,1.69,0.728,2.697,1.31
						c0.562,0.326,0.961,1.147,1.466,0.856c0.629-0.363-0.053-1.381-0.488-2.136c-0.873-1.512-1.282-2.574-2.529-3.735
						c-0.619-0.584-1.21-0.511-1.828-1.095c-0.934-0.872-1.397-1.545-2.447-2.169c-1.133-0.667-1.906-0.423-3.069-0.917l-1.12,0.646
						C161.57,120.109,161.143,121.05,161.716,122.041z"/>
					<path fill-rule="evenodd" clip-rule="evenodd" fill="#FFFFFF" d="M168.602,128.276c0.495,0.856,1.195,1.035,1.69,1.891
						c0.378,0.655,0.081,1.208-0.254,1.759c-0.613,1.004-1.238,1.992-0.548,3.184c0.554,0.958,1.702,1.168,2.499,0.707
						c0.419-0.242,0.459-0.69,0.696-1.119c0.801-1.425,0.402-3.054-0.549-4.699c-0.65-1.126-1.352-1.728-2.448-2.169
						C169.229,127.647,168.33,127.806,168.602,128.276z"/>
					<path fill-rule="evenodd" clip-rule="evenodd" fill="#FFFFFF" d="M144.623,130.832c0.182-0.105,0.189-0.287,0.37-0.392
						c0.42-0.243,0.963,0.116,1.254,0.619c0.378,0.655,0.105,1.216,0.484,1.871c0.389,0.671,1.193,0.386,1.582,1.057
						c0.64,1.108-0.173,2.027,0.467,3.135c0.417,0.721,1.152,0.702,1.569,1.423c0.349,0.605,0.023,1.106-0.236,1.659
						c-0.377,0.8-0.45,1.514-1.192,1.943c-0.112,0.065-0.222-0.096-0.34-0.073c-0.402-0.955,0.15-1.677-0.363-2.567
						c-1.097-1.897-2.591-2.289-3.688-4.187c-0.591-1.024-0.609-1.864-0.425-2.934c0.082-0.473,0.285-0.703,0.491-1.089
						C144.666,131.166,144.482,130.914,144.623,130.832z"/>
					<path fill-rule="evenodd" clip-rule="evenodd" fill="#FFFFFF" d="M151.309,139.693c0.043,0.625,0.258,1.061,0.027,1.597
						c-0.464,1.072-1.582,1.785-0.913,2.945c1.204,2.083,3.216,2.465,5.256,2.25c0.489-0.058,0.898,0.198,1.319-0.044
						c0.335-0.194,0.517-0.657,0.284-1.059c-0.174-0.303-0.475-0.175-0.759-0.279c-0.663-0.245-1.071-0.435-1.671-0.827
						c-1.338-0.862-1.933-1.795-2.767-3.24C151.784,140.516,151.726,140.124,151.309,139.693z"/>
				</g>
				<g>
					<path fill="#C9252C" d="M139.172,139.211c1.477,1.653,2.018,4.902,0.651,7.292c-0.788,1.375-2.514,1.851-3.972,0.866
						c-1.28-0.865-1.233-2.799-0.361-4.188c1.909-3.041,1.277-3.672,1.372-6.209C137.927,137.637,138.306,138.241,139.172,139.211z"
						/>
					<path fill="#C9252C" d="M146.122,146.341c1.475,1.653,2.017,4.902,0.649,7.292c-0.787,1.375-2.514,1.851-3.971,0.866
						c-1.28-0.865-1.233-2.799-0.362-4.187c1.909-3.04,1.278-3.672,1.373-6.209C144.876,144.767,145.255,145.37,146.122,146.341z"/>
					<path fill="#C9252C" d="M146.393,130.909c1.476,1.652,2.018,4.902,0.65,7.292c-0.787,1.375-2.513,1.851-3.971,0.866
						c-1.28-0.865-1.233-2.799-0.361-4.188c1.91-3.041,1.277-3.672,1.372-6.209C145.147,129.334,145.525,129.938,146.393,130.909z"
						/>
				</g>
			</g>
			<g>
				<g>
					<path fill-rule="evenodd" clip-rule="evenodd" fill="#FFCC4E" d="M137.907,175.78l2.235,0.744l0.596-2.234L137.907,175.78z
						 M155.113,223.71c3.797-0.41,10.13-3.239,11.62-6.069c0.296-1.267,0.554,4.031,0.446,4.692
						c-0.446,2.756-8.425,6.787-14.45,5.957c-4.879-0.67-9.795-4.654-10.092-7.93c-0.262-2.877,0.627-6.218,1.974-8.978
						c1.49-3.054,2.421-4.505,4.134-7.186c2.785-4.36,5.214-7.563,7.299-13.147c1.228-3.288,1.675-6.48,0.484-9.162
						c-1.192-2.682-2.327-4.237-4.692-5.659c-1.653-0.995-2.753-1.521-4.692-1.862l-1.937,1.563l-0.746,1.414l-0.281-2.948
						l-2.593,3.053l-8.133,1.923l-0.522-0.522l5.958-5.541l8.253-1.476c2.69-0.479,6.195,0.893,9.384,3.502
						c1.639,1.34,3.959,4.689,4.617,8.59c1.466,8.665-5.759,15.194-8.266,18.596c-2.478,3.36-4.759,6.092-6.108,8.789
						c-1.191,2.384-2.948,4.55-2.607,7.078C144.536,221.141,148.507,224.424,155.113,223.71z"/>
					<g>
						<path fill-rule="evenodd" clip-rule="evenodd" d="M140.668,174.158l-3.14,1.654l2.717,0.903l0.724-2.716L140.668,174.158z
							 M140.507,174.58c-0.118,0.44-0.408,1.53-0.468,1.754c-0.22-0.073-1.31-0.438-1.754-0.585
							C138.718,175.522,140.084,174.803,140.507,174.58z"/>
						<path fill-rule="evenodd" clip-rule="evenodd" d="M147.117,171.687l-8.296,1.483l-6.104,5.675l0.69,0.689l8.262-1.952
							c0,0,2.016-2.374,2.396-2.821c0.052,0.545,0.296,3.095,0.296,3.095l0.977-1.857c0,0,1.737-1.387,1.843-1.471
							c1.869,0.336,2.935,0.839,4.579,1.827c2.463,1.483,3.528,3.111,4.633,5.594c0.458,1.031,0.688,2.173,0.688,3.438
							c0,1.649-0.392,3.51-1.176,5.611c-1.715,4.595-3.635,7.527-5.858,10.92l-1.427,2.199c-1.728,2.703-2.659,4.162-4.142,7.2
							c-1.314,2.695-2.034,5.553-2.034,8.01c0,0.356,0.015,0.706,0.046,1.045c0.309,3.405,5.372,7.4,10.221,8.067
							c5.885,0.809,14.129-3.076,14.617-6.084c0.008-0.048,0.078-4.948-0.467-5.056c-0.19-0.037-0.247,0.203-0.271,0.307
							c-1.389,2.629-7.589,5.535-11.491,5.955l0,0c-6.779,0.731-10.443-2.669-10.785-5.196c-0.256-1.896,0.698-3.582,1.708-5.366
							l0.884-1.624c1.024-2.048,2.579-4.104,4.381-6.484l1.713-2.283l1.576-1.945c3.166-3.771,7.951-9.471,6.718-16.762
							c-0.699-4.139-3.176-7.459-4.669-8.683C153.338,172.53,149.784,171.209,147.117,171.687z M147.17,171.979
							c2.582-0.461,6.045,0.836,9.264,3.47c1.459,1.193,3.879,4.443,4.564,8.499c1.21,7.155-3.521,12.793-6.653,16.522l-1.587,1.96
							l-1.711,2.282c-1.81,2.39-3.373,4.456-4.41,6.529l-0.876,1.61c-1.036,1.83-2.015,3.557-1.746,5.553
							c0.358,2.644,4.137,6.207,11.112,5.454l0,0c3.595-0.388,10.016-3.096,11.674-6.065c0.137,0.723,0.256,2.803,0.256,3.9
							c0,0.284-0.009,0.505-0.026,0.613c-0.419,2.586-8.279,6.661-14.283,5.835c-4.73-0.648-9.666-4.514-9.964-7.798
							c-0.238-2.615,0.476-5.856,1.958-8.896c1.476-3.024,2.404-4.478,4.09-7.115c0.036-0.058,1.461-2.252,1.461-2.252
							c2.232-3.408,4.161-6.354,5.888-10.979c1.414-3.788,1.571-6.821,0.481-9.273c-1.128-2.539-2.22-4.204-4.751-5.729
							c-1.663-1-2.796-1.538-4.743-1.881l-0.067-0.012l-1.989,1.606c0,0-0.321,0.597-0.55,1.025
							c-0.065-0.682-0.269-2.809-0.269-2.809s-2.728,3.21-2.789,3.284c-0.093,0.021-7.848,1.854-8.005,1.892
							c-0.07-0.07-0.237-0.235-0.354-0.354c0.216-0.201,5.75-5.347,5.813-5.405C139.045,173.431,147.17,171.979,147.17,171.979z"/>
					</g>
				</g>
				<g>
					<path fill-rule="evenodd" clip-rule="evenodd" fill="#FFCC4E" d="M137.684,215.853c-0.651-0.149-1.042-0.224-1.712-0.224
						c-1.099,0-2.152,1.009-1.938,2.084c0.298,1.491,1.453,1.977,3.687,2.572c0.187,1.078,0.572,2.297,1.081,3.314
						c0.521,1.043,2.16,2.644,3.203,3.201c-1.192,0.447-12.066,0.896-12.811-6.106c-0.132-1.239,0.819-4.17,3.799-4.991
						C134.699,215.234,136.827,215.406,137.684,215.853z"/>
				</g>
				<g>
					<path fill-rule="evenodd" clip-rule="evenodd" fill="#FFCC4E" d="M166.658,216.15c0.119-2.865-9.458-5.214-11.247-5.214
						c0.688,0.614,2.011,4.097-3.427,6.554c-2.021,0.915-4.99,1.489-6.853,1.641c1.322,2.643,3.541,3.583,7.039,3.909
						C158.985,223.674,166.583,217.939,166.658,216.15z"/>
				</g>
				<g>
					<path fill-rule="evenodd" clip-rule="evenodd" fill="#FFCC4E" d="M145.169,215.966c-0.186,0.483-0.633,1.303-0.186,2.345
						c0.171,0.398,3.874-0.371,6.256-1.49c4.896-2.297,3.482-4.784,3.426-5.138c-1.191,0.223-3.725,1.041-5.809,2.084
						C147.31,214.54,146.063,215.369,145.169,215.966z"/>
				</g>
				<g>
					<path fill-rule="evenodd" clip-rule="evenodd" fill="#C9252C" d="M141.036,187.325c0,0,0.73,6.519,0.298,10.65
						c-0.391,3.733-0.944,4.917-2.135,9.387c-0.797,2.989-1.43,4.581-1.44,7.597c-0.008,2.107,0.167,3.295,0.67,5.363
						c0-1.658-0.166-3.729,0.372-6.208c0.968-4.468,2.234-6.231,3.948-10.924c1.345-3.684,2.44-9.627,1.527-15.717
						c-0.252-1.675-0.205-2.773-0.931-4.245C143.345,183.229,141.706,186.301,141.036,187.325z"/>
					<g>
						<path fill-rule="evenodd" clip-rule="evenodd" d="M143.213,183.159c-0.017,0.03-1.643,3.078-2.303,4.084l-0.029,0.046
							l0.006,0.053c0.007,0.064,0.724,6.549,0.298,10.617c-0.293,2.801-0.671,4.136-1.357,6.563l-1.189,4.309
							c-0.593,2.114-1.021,3.642-1.03,6.128c-0.009,2.213,0.201,3.453,0.674,5.398l0.293-0.034l-0.011-0.948
							c-0.026-1.508-0.055-3.216,0.38-5.228c0.621-2.866,1.351-4.579,2.274-6.75l1.668-4.156c0.648-1.777,2.677-8.168,1.534-15.788
							l-0.145-1.117c-0.127-1.091-0.237-2.031-0.8-3.172l-0.129-0.26L143.213,183.159z M143.329,183.574
							c0.424,0.965,0.536,1.787,0.654,2.795l0.145,1.127c0.242,1.606,0.34,3.158,0.34,4.62c0,5.416-1.353,9.636-1.859,11.023
							l-1.662,4.142c-0.93,2.184-1.664,3.908-2.291,6.801c-0.336,1.554-0.4,2.963-0.4,4.188c0,0.224,0.004,0.426,0.008,0.64
							c-0.246-1.216-0.356-2.262-0.356-3.822c0-0.043,0-0.085,0-0.128c0.009-2.446,0.432-3.959,1.019-6.05l1.189-4.307
							c0.691-2.441,1.071-3.787,1.366-6.611c0.099-0.94,0.137-2.007,0.137-3.096c0-3.531-0.397-7.24-0.43-7.535
							C141.76,186.478,142.924,184.325,143.329,183.574z"/>
					</g>
				</g>
				<g>
					<path fill-rule="evenodd" clip-rule="evenodd" fill="#C9252C" d="M142.078,218.123c0.394-2.83,0.934-4.281,2.235-7.036
						c1.267-2.683,2.378-4.261,4.022-7.078c2.606-4.468,5.213-7.671,7.3-13.257c1.227-3.29,1.667-5.7,0.372-8.938
						c-1.025-2.563-2.266-3.916-4.618-5.363c-1.48-0.909-2.458-1.414-4.172-1.564l-1.192,0.969c0,0,3.74,3.485,4.916,6.405
						c1.457,3.615,1.132,6.146,0.448,9.982c-0.527,2.947-1.47,4.454-2.608,7.224c-1.619,3.94-2.904,6.034-4.766,9.833
						c-1.048,2.138-1.639,3.761-2.309,6.404c-0.726,2.862-0.596,4.543,0.596,7.04C142.078,221.216,141.893,219.465,142.078,218.123z
						"/>
					<g>
						<path fill-rule="evenodd" clip-rule="evenodd" d="M147.124,174.771l-1.325,1.077l0.125,0.116
							c0.037,0.034,3.729,3.496,4.879,6.353c1.455,3.61,1.114,6.113,0.438,9.898c-0.387,2.171-0.992,3.53-1.759,5.253l-0.839,1.942
							c-1.084,2.639-2.009,4.428-3.08,6.5l-1.683,3.323c-1.067,2.175-1.652,3.8-2.319,6.433c-0.736,2.902-0.589,4.639,0.606,7.14
							l0.282-0.086c-0.139-0.942-0.299-2.199-0.299-3.357c0-0.425,0.022-0.84,0.075-1.218c0.386-2.778,0.894-4.184,2.222-6.996
							c0.884-1.871,1.708-3.229,2.663-4.801l1.353-2.264l2.2-3.568c1.856-2.928,3.61-5.691,5.111-9.713
							c0.72-1.927,1.167-3.552,1.167-5.208c0-1.218-0.241-2.453-0.795-3.836c-1.003-2.505-2.228-3.928-4.679-5.435
							c-1.436-0.883-2.437-1.431-4.236-1.586l-0.06-0.005L147.124,174.771z M147.261,175.045c1.696,0.156,2.669,0.684,4.05,1.532
							c2.39,1.471,3.583,2.854,4.558,5.292c0.537,1.342,0.771,2.542,0.771,3.726c0,1.621-0.439,3.213-1.145,5.104
							c-1.49,3.991-3.235,6.743-5.083,9.657l-2.206,3.578l-1.352,2.258c-0.959,1.58-1.786,2.944-2.677,4.829
							c-1.343,2.845-1.855,4.267-2.248,7.082l0,0c-0.054,0.393-0.076,0.818-0.076,1.259c0,0.733,0.066,1.476,0.147,2.182
							c-0.357-0.962-0.596-1.864-0.596-2.808c0-0.887,0.151-1.841,0.445-2.996c0.661-2.613,1.242-4.222,2.297-6.376l1.682-3.317
							c1.073-2.078,2-3.872,3.089-6.523l0.836-1.935c0.775-1.74,1.386-3.115,1.779-5.321c0.333-1.87,0.587-3.431,0.587-4.967
							c0-1.616-0.28-3.206-1.042-5.097c-1.088-2.701-4.241-5.78-4.829-6.341C146.448,175.703,147.178,175.111,147.261,175.045z"/>
					</g>
				</g>
				<g>
					<path fill-rule="evenodd" clip-rule="evenodd" fill="#FFCC4E" d="M138.728,218.979c0.074,1.192,0.202,1.933,0.595,3.018
						c0.483,1.343,2.123,3.352,4.32,4.581c1.572,0.881,3.091,1.342,4.916,1.489l-0.075-0.075c-2.439-1.135-4.543-2.271-5.735-3.945
						c-1.152-1.621-1.863-2.385-1.937-4.843c-0.049-1.638-0.039-2.629,0.522-4.171c0,0-2.049-0.78-2.124-0.633
						C138.839,215.518,138.728,218.979,138.728,218.979z"/>
					<g>
						<path fill-rule="evenodd" clip-rule="evenodd" d="M139.078,214.334c-0.382,1.143-0.495,4.499-0.5,4.642v0.015
							c0.08,1.269,0.226,2.012,0.604,3.059c0.495,1.373,2.162,3.413,4.388,4.658c1.594,0.894,3.129,1.359,4.977,1.509l0.401,0.033
							l-0.358-0.36c-2.722-1.278-4.606-2.364-5.719-3.93l-0.289-0.402c-0.969-1.346-1.554-2.156-1.62-4.356
							c-0.048-1.598-0.048-2.575,0.513-4.115l0.05-0.138l-0.137-0.054C139.213,214.064,139.141,214.208,139.078,214.334z
							 M139.329,214.539c0.239,0.025,1.055,0.296,1.827,0.588c-0.401,1.154-0.511,2.046-0.511,3.087
							c0,0.313,0.008,0.641,0.019,0.995c0.069,2.292,0.674,3.131,1.676,4.521l0.288,0.402c1.035,1.455,2.726,2.501,5.028,3.62
							c-1.394-0.216-2.667-0.592-3.941-1.306c-2.161-1.207-3.775-3.179-4.252-4.5c-0.366-1.014-0.509-1.737-0.586-2.97
							C138.879,218.902,138.99,215.693,139.329,214.539z"/>
					</g>
				</g>
				<g>
					<path fill="#FFCC4E" d="M145.766,190.192l-0.075,0.447l5.475-0.819l-0.261,1.899l-5.177,0.522l-0.111,0.521l5.027-0.336
						l-0.373,1.826l-4.443,0.077c-0.514,0.005-0.885-0.198-0.828-0.457c0,0,0.098-2.018,0.057-3.309
						c-0.049-1.588-0.132-2.486-0.371-4.058l6.479-1.714l0.187,1.787l-5.662,1.341l-0.038,0.521l5.736-1.117l-0.037,1.826
						L145.766,190.192z"/>
					<g>
						<path d="M151.127,184.648l-6.609,1.748l0.021,0.133c0.238,1.561,0.321,2.467,0.37,4.039l-0.058,3.297
							c-0.022,0.093,0.008,0.214,0.088,0.314c0.157,0.191,0.489,0.305,0.891,0.299l4.563-0.08l0.436-2.133
							c0,0-4.662,0.312-5.026,0.335c0.023-0.104,0.033-0.149,0.048-0.223c0.207-0.02,5.185-0.521,5.185-0.521l0.304-2.213
							c0,0-5.092,0.762-5.469,0.818c0.012-0.071,0.016-0.092,0.024-0.142c0.197-0.039,5.603-1.047,5.603-1.047l0.042-2.129
							c0,0-5.369,1.044-5.726,1.114c0.008-0.103,0.011-0.146,0.016-0.219c0.205-0.048,5.682-1.345,5.682-1.345l-0.219-2.091
							L151.127,184.648z M151.035,184.981c0.027,0.259,0.134,1.284,0.155,1.484c-0.244,0.058-5.64,1.336-5.64,1.336l-0.06,0.824
							c0,0,5.405-1.054,5.745-1.119c-0.005,0.277-0.026,1.331-0.03,1.521c-0.229,0.041-5.57,1.039-5.57,1.039l-0.126,0.751
							c0,0,5.115-0.766,5.481-0.82c-0.041,0.296-0.193,1.403-0.217,1.586c-0.223,0.023-5.168,0.521-5.168,0.521l-0.176,0.82
							c0,0,4.669-0.311,5.03-0.335c-0.059,0.284-0.272,1.334-0.31,1.516c-0.227,0.005-4.324,0.075-4.324,0.075
							c-0.343,0.005-0.577-0.09-0.656-0.188c-0.021-0.026-0.027-0.048-0.027-0.064c0-0.008,0-0.016,0.001-0.021
							c0.004-0.024,0.062-3.344,0.062-3.344c-0.048-1.539-0.131-2.456-0.355-3.945C145.09,186.554,150.723,185.064,151.035,184.981z
							"/>
					</g>
				</g>
				<g>
					<path fill-rule="evenodd" clip-rule="evenodd" fill="#C9252C" d="M133.923,187.138c-0.895,1.007-2.808,3.055-3.538,4.881
						c-0.521,1.304-0.792,3.051-0.373,5.064c0.187,0.893,0.632,1.638,1.228,2.31c-0.223-0.561-0.547-2.034-0.596-2.683
						c-0.074-1.005,0.076-2.048,0.671-3.017c-0.149,1.117,0.271,3.548,0.41,4.022c0.623,2.085,1.508,3.054,2.719,4.879
						c0,0-0.812-2.438-1.095-4.052c-0.444-2.531-0.536-4.929-0.209-6.585c0.177-0.895,1.623-3.254,2.942-5.154
						c0.984-1.417,2.105-2.77,2.756-3.463c0.558-0.596,0.902-0.853,1.527-1.341l1.042-3.277c-1.377,0.596-3.016,1.266-3.016,1.266
						c0,0.781,0.186,2.495,0.186,2.495C136.38,184.682,134.734,186.226,133.923,187.138z"/>
				</g>
				<g>
					<path fill="#FFCC4E" d="M145.282,196.897l-0.15,0.52c0.382-0.005,3.911-0.223,3.911-0.223l-0.745,1.751l-3.314,0.11
						l-0.112,0.561l3.166-0.075l-0.745,1.75h-3.091l-0.148,0.409c0.271,0.042,2.941,0.225,2.941,0.225l-0.745,1.526l-2.793-0.299
						c0.479-1.646,0.702-2.594,1.004-4.281c0.252-1.399,0.359-2.196,0.489-3.609l4.8-0.151l-0.521,1.563L145.282,196.897z"/>
					<g>
						<path d="M149.748,195.035l-4.866,0.153l-0.007,0.067c-0.128,1.407-0.236,2.214-0.487,3.601
							c-0.301,1.677-0.527,2.636-1.002,4.275l-0.025,0.086l2.933,0.313l0.816-1.672c0,0-2.781-0.212-2.954-0.226
							c0.034-0.093,0.077-0.212,0.098-0.269c0.101,0,3.087,0,3.087,0l0.81-1.9c0,0-3.012,0.07-3.188,0.075
							c0.022-0.112,0.067-0.336,0.082-0.411c0.114-0.005,3.255-0.109,3.255-0.109l0.812-1.796l0.047-0.111
							c0,0-3.733,0.214-3.926,0.226c0.034-0.116,0.087-0.306,0.105-0.371c0.104-0.005,3.946-0.224,3.946-0.224l0.571-1.712
							L149.748,195.035z M149.646,195.187c-0.058,0.172-0.443,1.33-0.472,1.414c-0.098,0.006-3.949,0.225-3.949,0.225l-0.192,0.672
							c0,0,3.669-0.209,3.895-0.221c-0.083,0.193-0.698,1.639-0.698,1.639l-3.307,0.068l-0.142,0.708c0,0,2.928-0.067,3.143-0.073
							c-0.078,0.183-0.646,1.519-0.68,1.599c-0.095,0-3.094,0-3.094,0l-0.201,0.552c0,0,2.727,0.206,2.931,0.223
							c-0.081,0.165-0.634,1.3-0.674,1.379c-0.097-0.009-2.492-0.264-2.653-0.282c0.46-1.59,0.687-2.555,0.982-4.203
							c0.247-1.37,0.356-2.184,0.482-3.552C145.142,195.331,149.444,195.193,149.646,195.187z"/>
					</g>
				</g>
				<g>
					<path fill="#FFCC4E" d="M143.084,203.898l2.831,0.223l-0.746,1.49l-2.271-0.225l-0.298,0.484l2.234,0.3l-0.856,1.712
						l-2.346-0.371c0.3-0.771,0.473-1.208,0.783-1.975C142.672,204.896,142.82,204.535,143.084,203.898z"/>
					<g>
						<path d="M143.016,203.87l-0.67,1.64l-0.817,2.061l2.491,0.395l0.928-1.854c0,0-2.019-0.271-2.224-0.297
							c0.078-0.126,0.238-0.387,0.238-0.387l2.252,0.264l0.816-1.635l-2.994-0.236L143.016,203.87z M142.483,205.565
							c0,0,0.589-1.444,0.649-1.59c0.1,0.008,2.466,0.194,2.666,0.211c-0.083,0.167-0.633,1.265-0.673,1.346
							c-0.097-0.011-2.22-0.219-2.22-0.219l-0.369,0.519l-0.061,0.098c0,0,2.057,0.274,2.245,0.301
							c-0.081,0.161-0.742,1.483-0.786,1.571c-0.099-0.017-2.035-0.323-2.2-0.349C141.797,207.295,142.483,205.565,142.483,205.565z
							"/>
					</g>
				</g>
				<g>
					<path fill="#FFCC4E" d="M141.073,209.857l-0.298,0.521l2.124,0.297l-0.596,1.64l-2.012-0.336l-0.186,0.484l2.011,0.41
						l-0.294,1.18c-0.084,0.233-0.34,0.353-0.572,0.267l-1.488-0.54c-0.231-0.084-0.352-0.342-0.267-0.571
						c0,0,0.237-1.193,0.722-2.646c0.364-1.091,0.588-1.511,1.08-2.42l2.346,0.372l-0.633,1.601L141.073,209.857z"/>
					<g>
						<path d="M141.231,208.108c-0.493,0.911-0.718,1.329-1.085,2.431c-0.48,1.441-0.721,2.643-0.724,2.654
							c0.003-0.01,0.021,0.387,0.021,0.387l0.294,0.271l1.487,0.54l0.399-0.018l0.269-0.294l0.315-1.264
							c0,0-1.843-0.376-2.001-0.407c0.037-0.099,0.105-0.274,0.133-0.345c0.112,0.019,2.012,0.335,2.012,0.335l0.648-1.785
							c0,0-1.909-0.266-2.105-0.294c0.066-0.113,0.186-0.323,0.219-0.382c0.094,0.013,1.945,0.261,1.945,0.261l0.688-1.741
							l-2.49-0.396L141.231,208.108z M139.787,213.711l-0.21-0.194l-0.012-0.281c0.005-0.023,0.245-1.217,0.721-2.649
							c0.357-1.067,0.582-1.492,1.05-2.36c0.096,0.017,2.037,0.323,2.202,0.35c-0.06,0.148-0.54,1.365-0.577,1.46
							c-0.108-0.014-1.929-0.26-1.929-0.26l-0.378,0.662c0,0,1.975,0.274,2.142,0.298c-0.055,0.15-0.506,1.394-0.543,1.497
							c-0.114-0.021-2.011-0.336-2.011-0.336l-0.239,0.622c0,0,1.879,0.385,2.021,0.412c-0.033,0.132-0.275,1.105-0.275,1.105
							c0.001-0.007-0.19,0.202-0.19,0.202l-0.285,0.013L139.787,213.711z"/>
					</g>
				</g>
				<g>
					<path fill-rule="evenodd" clip-rule="evenodd" fill="#FFCC4E" d="M145.952,176.229l-0.895,1.041l0.041,1.318l-1.53,4.23
						c0,0,0.463,0.934,0.67,1.565c0.192,0.581,0.336,1.415,0.336,1.415l6.405-1.938c0,0-0.361-1.566-1.409-3.302
						c-0.106-0.179-3.051,1.207-3.172,1.031c-0.159-0.232,2.489-2.04,2.294-2.289C147.546,177.835,145.952,176.229,145.952,176.229z
						"/>
					<g>
						<path fill-rule="evenodd" clip-rule="evenodd" d="M145.838,176.13l-0.932,1.087l0.043,1.376l-1.542,4.23l0.689,1.606
							l0.367,1.549l0.153-0.037l6.539-1.978l-0.031-0.136c-0.015-0.065-0.38-1.611-1.427-3.348c-0.105-0.175-0.301-0.123-1.752,0.45
							c-0.417,0.164-0.942,0.371-1.255,0.47c0.212-0.212,0.599-0.533,0.907-0.789c0.881-0.729,1.256-1.061,1.256-1.281
							c0-0.045-0.015-0.084-0.045-0.121c-1.14-1.455-2.736-3.071-2.752-3.086l-0.114-0.114L145.838,176.13z M145.958,176.448
							c0.373,0.382,1.656,1.718,2.617,2.944c-0.065,0.078-0.729,0.627-1.166,0.99c-0.865,0.716-1.17,0.992-1.17,1.181
							c0,0.04,0.012,0.076,0.037,0.11c0.113,0.164,0.329,0.108,1.78-0.467c0.527-0.209,1.224-0.482,1.422-0.508
							c0.87,1.464,1.238,2.744,1.321,3.061c-0.259,0.078-5.834,1.765-6.116,1.85c-0.061-0.256-0.303-1.273-0.303-1.273
							s-0.578-1.348-0.651-1.521c0.039-0.107,1.509-4.177,1.509-4.177s-0.027-1.207-0.03-1.313
							C145.267,177.253,145.802,176.63,145.958,176.448z"/>
					</g>
				</g>
				<g>
					<polygon fill="#FFFFFF" points="136.298,184.809 133.588,179.653 141.743,177.605 143.978,174.924 144.276,178.313 
						143.046,181.926 140.366,187.399 139.025,187.885 136.604,186.208 138.875,187.138 137.051,185.351 139.993,186.768 
						142.646,178.688 142.302,178.201 137.163,179.359 137.684,184.868 135.628,180.146 					"/>
				</g>
			</g>
		</g>
		<path fill-rule="evenodd" clip-rule="evenodd" d="M183.159,161.595c-0.252-0.375-0.449-0.622-0.532-0.671
			C182.816,161.144,182.993,161.368,183.159,161.595z"/>
		<path fill-rule="evenodd" clip-rule="evenodd" d="M183.208,162.773c-0.078-0.643-0.297-1.781-0.632-3.048
			C182.98,161.372,183.225,162.994,183.208,162.773z"/>
		<path fill-rule="evenodd" clip-rule="evenodd" d="M183.212,162.013c-0.173-0.495-0.396-1.01-0.637-1.506
			C182.787,160.972,182.997,161.47,183.212,162.013z"/>
		<g>
			<polygon fill-rule="evenodd" clip-rule="evenodd" fill="#FFCC4E" points="182.824,161.283 182.854,161.322 182.963,161.235 			
				"/>
		</g>
		<g>
			<path fill-rule="evenodd" clip-rule="evenodd" d="M18.187,161.732c0,89.18,72.552,161.733,161.731,161.733
				c89.181,0,161.732-72.553,161.732-161.733c0-43.201-16.823-83.814-47.369-114.361C263.732,16.823,223.12,0,179.917,0
				C90.738,0,18.187,72.553,18.187,161.732z M22.529,161.732c0-42.04,16.371-81.564,46.098-111.291
				C98.354,20.714,137.878,4.343,179.917,4.343c42.041,0,81.565,16.372,111.292,46.099c29.726,29.727,46.097,69.25,46.097,111.291
				c0,86.786-70.604,157.39-157.388,157.39S22.529,248.518,22.529,161.732z"/>
		</g>
		<g>
			<path fill="#FFFFFF" d="M66.479,118.675l-3.264-1.64l1.473-2.932l-12.797-6.432l-1.473,2.932l-3.265-1.641l4.602-9.156
				c0.968-1.926,1.867-3.418,2.693-4.476c0.829-1.057,1.918-1.92,3.267-2.587c1.351-0.667,2.87-0.982,4.557-0.947
				c1.688,0.037,3.361,0.472,5.019,1.304c1.343,0.676,2.509,1.545,3.499,2.611c0.99,1.066,1.689,2.123,2.097,3.169
				c0.408,1.046,0.596,2.148,0.566,3.304c-0.03,1.157-0.177,2.159-0.441,3.007c-0.263,0.848-0.807,2.092-1.631,3.731L66.479,118.675
				z M67.209,109.088l0.607-1.209c0.735-1.463,1.129-2.719,1.18-3.766c0.051-1.048-0.272-2.071-0.971-3.072
				s-1.819-1.891-3.367-2.667c-1.473-0.74-2.854-1.106-4.147-1.101c-1.291,0.007-2.356,0.359-3.194,1.057
				c-0.838,0.699-1.604,1.739-2.298,3.118l-0.607,1.208L67.209,109.088z"/>
			<path fill="#FFFFFF" d="M78.824,95.219l-2.875-2.256l1.603-2.043l-11.271-8.84l-1.603,2.043l-2.876-2.256L73.57,66.864
				l5.396,4.234l-2.554,3.255l-2.52-1.977l-4.137,5.273l3.928,3.081l3.34-4.258l2.875,2.255l-3.34,4.258l4.468,3.503l4.136-5.273
				l-2.546-1.996l2.553-3.255l5.421,4.251L78.824,95.219z"/>
			<path fill="#FFFFFF" d="M95.268,75.712l-2.422-2.742l2.438-2.154l-9.491-10.741l-2.438,2.154l3.339,3.779l-2.786,2.462
				l-5.762-6.52l14.707-12.996l5.762,6.52l-2.753,2.432l-3.339-3.779l-2.507,2.217l9.491,10.741l2.437-2.154l2.423,2.741
				L95.268,75.712z"/>
			<path fill="#FFFFFF" d="M126.608,49.1l1.855,3.146l-5.675,3.348l-9.013-5.673l-2.128,1.256l2.954,5.006l2.33-1.374l1.855,3.145
				l-9.732,5.742l-1.854-3.146l2.556-1.508l-7.272-12.33l-2.557,1.508l-1.856-3.145l11.231-6.626
				c2.115-1.247,3.953-1.612,5.515-1.096c1.561,0.516,2.74,1.449,3.534,2.796c1.248,2.115,1.083,4.293-0.494,6.534l6.343,3.838
				L126.608,49.1z M109.895,48.206l1.659-0.98c2.052-1.21,2.647-2.548,1.783-4.011c-0.427-0.722-0.979-1.125-1.658-1.206
				c-0.679-0.08-1.43,0.122-2.25,0.606l-2.101,1.24L109.895,48.206z"/>
			<path fill="#FFFFFF" d="M134.175,26.961c3.535-1.186,6.66-1.098,9.375,0.264c2.714,1.362,4.564,3.512,5.549,6.448
				c0.989,2.947,0.809,5.781-0.541,8.5c-1.349,2.721-3.787,4.673-7.312,5.856c-3.664,1.23-6.831,1.126-9.498-0.311
				c-2.668-1.438-4.477-3.572-5.427-6.4c-0.981-2.926-0.807-5.753,0.524-8.479C128.176,30.115,130.619,28.155,134.175,26.961z
				 M135.431,30.704c-1.572,0.528-2.707,1.565-3.407,3.111c-0.7,1.546-0.667,3.458,0.098,5.736c0.676,2.015,1.757,3.444,3.242,4.29
				c1.486,0.845,3.03,0.999,4.631,0.463c1.571-0.528,2.708-1.567,3.412-3.121c0.702-1.552,0.679-3.444-0.068-5.673
				c-0.67-1.994-1.737-3.434-3.203-4.319C138.669,30.305,137.101,30.144,135.431,30.704z"/>
			<path fill="#FFFFFF" d="M155.562,43.768l-0.539-3.612l3.244-0.484l-2.113-14.16l-3.243,0.485l-0.539-3.613l12.084-1.802
				l0.538,3.613l-3.273,0.488l2.112,14.16l3.274-0.489l0.539,3.612L155.562,43.768z"/>
			<path fill="#FFFFFF" d="M173.656,41.447l0.059-3.654l3.25,0.052l0.234-14.321l-3.252-0.053l-0.081,5.039l-3.717-0.061l0.14-8.693
				l19.609,0.318l-0.141,8.692l-3.669-0.059l0.082-5.039l-3.345-0.054l-0.231,14.323l3.25,0.052l-0.058,3.655L173.656,41.447z"/>
			<path fill="#FFFFFF" d="M223.214,45.22l-0.954,3.529l-6.367-1.72l-2.245-10.421l-2.388-0.645l-1.52,5.617l2.615,0.707
				l-0.955,3.53l-10.919-2.95l0.954-3.53l2.868,0.774l3.739-13.833l-2.87-0.775l0.955-3.531l12.601,3.406
				c2.374,0.642,3.921,1.702,4.645,3.181c0.723,1.48,0.881,2.976,0.473,4.487c-0.641,2.373-2.317,3.779-5.024,4.219l1.689,7.226
				L223.214,45.22z M212.161,32.628l1.861,0.503c2.304,0.622,3.679,0.113,4.12-1.53c0.22-0.811,0.119-1.487-0.297-2.03
				c-0.417-0.542-1.088-0.938-2.007-1.188l-2.358-0.637L212.161,32.628z"/>
			<path fill="#FFFFFF" d="M230.581,32.889l1.596-3.291l9.299,4.504l-1.594,3.292l-1.92-0.93l-4.267,8.809
				c-0.568,1.176-0.931,2.048-1.083,2.613c-0.154,0.565-0.102,1.118,0.153,1.659c0.259,0.539,0.71,0.965,1.354,1.277
				c0.664,0.321,1.292,0.429,1.883,0.325c0.593-0.105,1.068-0.365,1.426-0.78c0.355-0.416,0.89-1.355,1.6-2.822l4.145-8.556
				l-1.89-0.916l1.595-3.292l7.759,3.759l-1.595,3.291l-2.381-1.154l-4.723,9.748c-0.643,1.326-1.179,2.254-1.61,2.79
				c-0.432,0.533-1.045,0.975-1.834,1.324c-0.793,0.349-1.758,0.475-2.892,0.381c-1.135-0.096-2.324-0.444-3.566-1.044
				c-1.437-0.697-2.565-1.494-3.38-2.39c-0.816-0.898-1.311-1.802-1.478-2.713c-0.17-0.912-0.164-1.732,0.017-2.463
				c0.182-0.731,0.657-1.895,1.432-3.491l4.267-8.809L230.581,32.889z"/>
			<path fill="#FFFFFF" d="M258.904,61.964l2.232-2.891l8.021,6.195c-1.604,2.075-3.248,3.43-4.937,4.064
				c-1.688,0.633-3.517,0.746-5.485,0.339c-1.972-0.408-3.845-1.3-5.624-2.674c-3.095-2.39-4.825-5.05-5.199-7.982
				c-0.373-2.934,0.426-5.675,2.396-8.228c1.367-1.771,2.986-3.018,4.854-3.743c1.868-0.724,3.764-0.895,5.681-0.513
				c1.918,0.381,3.689,1.2,5.314,2.454c2.296,1.774,3.653,3.712,4.071,5.816l1.084-1.402l2.903,2.242l-4.694,6.079l-2.905-2.243
				c0.49-1.259,0.51-2.534,0.064-3.82c-0.446-1.288-1.187-2.332-2.221-3.13c-1.36-1.051-2.893-1.466-4.597-1.243
				c-1.705,0.223-3.216,1.188-4.533,2.893c-1.508,1.952-2.168,3.816-1.981,5.59c0.188,1.774,0.982,3.204,2.388,4.288
				c1.033,0.798,2.082,1.21,3.148,1.235c1.067,0.025,2.078-0.308,3.031-1L258.904,61.964z"/>
			<path fill="#FFFFFF" d="M264.7,76.289l2.781-2.368l1.724,2.024l10.903-9.279l-1.722-2.024l2.782-2.368l6.396,7.519
				c1.418,1.666,2.375,2.987,2.875,3.964c0.5,0.978,0.626,2.079,0.385,3.306c-0.242,1.227-0.864,2.267-1.866,3.119
				c-1.603,1.364-3.395,1.554-5.375,0.572c0.947,2.596,0.474,4.702-1.422,6.314c-1.09,0.927-2.282,1.417-3.581,1.466
				c-1.298,0.049-2.5-0.29-3.602-1.018c-1.104-0.729-2.396-1.965-3.882-3.709L264.7,76.289z M272.853,80.231l1.027,1.208
				c0.935,1.097,1.742,1.729,2.428,1.894c0.687,0.166,1.426-0.091,2.224-0.769c0.837-0.713,1.224-1.446,1.16-2.201
				c-0.064-0.755-0.534-1.646-1.407-2.672l-1.027-1.207L272.853,80.231z M280.04,74.116l1.026,1.207
				c0.713,0.836,1.378,1.332,1.997,1.485c0.621,0.152,1.29-0.077,2.009-0.688c0.656-0.558,0.953-1.142,0.896-1.753
				c-0.057-0.61-0.492-1.393-1.306-2.349l-0.906-1.065L280.04,74.116z"/>
			<path fill="#FFFFFF" d="M281.502,97.702l3.182-1.803l1.494,2.64l5.092-2.883l4.488-9.286l-1.304-2.302l3.182-1.802l5.339,9.424
				l-3.182,1.803l-1.051-1.855l-3.04,5.37l6.192,0.195l-1.098-1.937l3.183-1.803l4.701,8.301l-3.181,1.802l-1.311-2.314
				l-10.143-0.694l-5.092,2.884l1.489,2.627l-3.182,1.802L281.502,97.702z"/>
		</g>
		<g>
			
				<rect x="99.644" y="171.285" transform="matrix(-0.3396 -0.9406 0.9406 -0.3396 -38.1252 339.1593)" fill-rule="evenodd" clip-rule="evenodd" fill="#FFFFFF" width="0.725" height="23.358"/>
		</g>
		<g>
			<g>
				<path fill="#FFFFFF" d="M45.836,206.271l3.374-1.406l1.189,2.858l13.223-5.504l-1.189-2.858l3.375-1.404l7.441,17.875
					l-6.16,2.565l-1.589-3.82l2.785-1.158l-2.498-6.002l-4.623,1.924l1.798,4.322l-3.374,1.404l-1.799-4.323l-5.226,2.177
					l1.279,3.074l-3.374,1.403L45.836,206.271z"/>
				<path fill="#FFFFFF" d="M80.556,226.728c2.069,3.106,2.8,6.147,2.192,9.126c-0.607,2.978-2.202,5.326-4.783,7.045
					c-2.59,1.725-5.374,2.29-8.354,1.696c-2.98-0.595-5.502-2.44-7.566-5.538c-2.145-3.22-2.87-6.304-2.177-9.257
					c0.693-2.953,2.282-5.258,4.768-6.913c2.571-1.712,5.347-2.282,8.328-1.708C75.944,221.755,78.475,223.604,80.556,226.728z
					 M77.268,228.918c-0.92-1.381-2.218-2.207-3.895-2.48c-1.677-0.271-3.515,0.259-5.517,1.593
					c-1.77,1.176-2.868,2.594-3.298,4.251c-0.429,1.656-0.176,3.187,0.762,4.594c0.919,1.382,2.221,2.208,3.905,2.483
					c1.683,0.272,3.504-0.242,5.464-1.546c1.751-1.169,2.863-2.575,3.335-4.223C78.497,231.942,78.245,230.385,77.268,228.918z"/>
				<path fill="#FFFFFF" d="M97.048,246.523c2.683,2.594,4.044,5.408,4.084,8.445s-1.017,5.67-3.17,7.897
					c-2.162,2.236-4.761,3.382-7.798,3.438c-3.037,0.054-5.893-1.211-8.568-3.798c-2.779-2.687-4.146-5.547-4.097-8.577
					c0.047-3.031,1.108-5.621,3.183-7.766c2.146-2.221,4.735-3.366,7.77-3.44C91.486,242.649,94.352,243.916,97.048,246.523z
					 M94.305,249.362c-1.192-1.152-2.636-1.683-4.331-1.593c-1.695,0.091-3.379,1.003-5.05,2.73
					c-1.477,1.528-2.248,3.145-2.314,4.854s0.507,3.15,1.722,4.325c1.191,1.152,2.639,1.683,4.342,1.592
					c1.702-0.092,3.371-0.982,5.006-2.673c1.461-1.514,2.249-3.125,2.358-4.833C96.149,252.054,95.571,250.586,94.305,249.362z"/>
				<path fill="#FFFFFF" d="M97.699,275.768l1.999-3.059l2.719,1.778l7.837-11.982l-2.719-1.779l-2.757,4.217l-3.109-2.034
					l4.756-7.271l16.405,10.729l-4.756,7.272l-3.07-2.007l2.756-4.217l-2.796-1.829l-7.837,11.982l2.719,1.778l-1.999,3.058
					L97.699,275.768z"/>
				<path fill="#FFFFFF" d="M115.774,287.039l1.422-3.364l2.447,1.034l5.575-13.183l-2.448-1.034l1.424-3.364l9.088,3.844
					c2.013,0.853,3.462,1.603,4.346,2.25c0.883,0.65,1.493,1.577,1.827,2.783c0.334,1.204,0.245,2.413-0.266,3.624
					c-0.819,1.937-2.333,2.911-4.543,2.92c2.01,1.897,2.531,3.989,1.563,6.28c-0.558,1.317-1.405,2.288-2.541,2.917
					c-1.138,0.626-2.363,0.862-3.675,0.707s-3.022-0.68-5.131-1.571L115.774,287.039z M124.824,286.901l1.461,0.616
					c1.326,0.562,2.332,0.762,3.019,0.604c0.687-0.161,1.234-0.723,1.641-1.687c0.428-1.012,0.442-1.84,0.047-2.485
					c-0.396-0.646-1.215-1.23-2.455-1.756l-1.46-0.617L124.824,286.901z M128.5,278.212l1.459,0.618
					c1.011,0.428,1.829,0.571,2.45,0.428c0.622-0.141,1.117-0.646,1.485-1.515c0.334-0.791,0.339-1.448,0.014-1.968
					c-0.326-0.521-1.065-1.023-2.22-1.513l-1.288-0.545L128.5,278.212z"/>
				<path fill="#FFFFFF" d="M161.035,297.556l-0.789,3.566l-10.379-2.293l0.788-3.564l2.701,0.596l-0.201-3.848l-5.478-1.21
					l-1.924,3.378l2.823,0.623l-0.788,3.566l-9.348-2.065l0.788-3.566l2.609,0.577l7.2-13.067l-2.807-0.62l0.789-3.566l13.778,3.045
					l-0.788,3.566l-2.837-0.628L158.515,297L161.035,297.556z M152.974,288.726l-0.354-6.747l-3.302,5.939L152.974,288.726z"/>
				<path fill="#FFFFFF" d="M164.507,301.516l0.151-3.649l3.091,0.13l0.596-14.301l-3.089-0.13l0.151-3.649l11.864,0.495
					l-0.153,3.649l-3.15-0.132l-0.598,14.302l6.383,0.266l0.278-6.676l4.207,0.176l-0.43,10.325L164.507,301.516z"/>
				<path fill="#FFFFFF" d="M188.433,302.09l-0.46-3.624l3.068-0.391l-1.807-14.199l-3.069,0.39l-0.46-3.623l11.779-1.498
					l0.46,3.624l-3.129,0.399l1.806,14.199l6.338-0.806l-0.842-6.63l4.176-0.532l1.302,10.253L188.433,302.09z"/>
				<path fill="#FFFFFF" d="M248.473,258.938l3.108-1.923l4.008,6.483l-3.11,1.923c-2.319-1.784-4.571-2.002-6.748-0.656
					c-1.799,1.113-2.781,2.567-2.945,4.363c-0.165,1.794,0.281,3.549,1.34,5.259c1.108,1.792,2.49,2.94,4.148,3.444
					c1.659,0.505,3.244,0.29,4.751-0.644c1.236-0.762,2.055-1.849,2.465-3.26c0.408-1.409,0.314-2.96-0.278-4.653l4.697-0.51
					c1.26,5.121-0.45,9.128-5.134,12.022c-3.309,2.046-6.353,2.697-9.135,1.953c-2.781-0.743-5.014-2.477-6.698-5.202
					c-1.199-1.941-1.812-3.909-1.84-5.904c-0.026-1.994,0.471-3.818,1.493-5.468c1.024-1.65,2.416-3.02,4.181-4.11
					c2.196-1.357,4.39-1.919,6.579-1.688L248.473,258.938z"/>
				<path fill="#FFFFFF" d="M267.696,271.703l-2.457-2.704l2.291-2.08l-9.62-10.598l-2.291,2.078l-2.455-2.704l8.792-7.981
					l2.455,2.705l-2.337,2.12l9.623,10.6l4.729-4.294l-4.492-4.948l3.117-2.831l6.947,7.652L267.696,271.703z"/>
				<path fill="#FFFFFF" d="M270.795,244.509l-2.88-2.248l6.345-8.141l2.884,2.247l-1.312,1.68l7.712,6.013
					c1.028,0.803,1.803,1.339,2.323,1.605c0.521,0.269,1.071,0.334,1.652,0.196c0.58-0.14,1.092-0.49,1.531-1.055
					c0.452-0.579,0.69-1.169,0.711-1.771c0.022-0.601-0.132-1.118-0.463-1.554s-1.138-1.154-2.421-2.154l-7.491-5.841l-1.289,1.654
					l-2.882-2.246l5.297-6.792l2.88,2.247l-1.625,2.084l8.533,6.654c1.16,0.904,1.957,1.624,2.389,2.157
					c0.431,0.534,0.733,1.224,0.907,2.069c0.176,0.847,0.098,1.813-0.233,2.903c-0.33,1.09-0.92,2.18-1.766,3.265
					c-0.981,1.259-1.997,2.193-3.042,2.802c-1.048,0.61-2.036,0.901-2.961,0.876c-0.927-0.025-1.727-0.203-2.403-0.533
					c-0.675-0.328-1.712-1.038-3.108-2.129l-7.711-6.014L270.795,244.509z"/>
				<path fill="#FFFFFF" d="M300.229,235.241l-3.235-1.698l1.237-2.354l-12.675-6.663l-1.236,2.354l-3.233-1.702l4.594-8.738
					c1.018-1.936,1.89-3.315,2.608-4.143c0.723-0.826,1.698-1.356,2.925-1.587c1.229-0.233,2.428-0.043,3.591,0.566
					c1.863,0.98,2.708,2.572,2.531,4.775c2.062-1.844,4.191-2.188,6.393-1.029c1.266,0.664,2.164,1.59,2.693,2.777
					c0.53,1.186,0.662,2.427,0.397,3.721c-0.264,1.294-0.931,2.956-1.997,4.983L300.229,235.241z M292.496,221.814l0.738-1.401
					c0.512-0.974,0.725-1.776,0.634-2.408c-0.088-0.631-0.551-1.168-1.385-1.606c-0.762-0.401-1.415-0.46-1.963-0.181
					c-0.544,0.282-1.109,0.979-1.693,2.088l-0.651,1.237L292.496,221.814z M300.851,226.208l0.738-1.405
					c0.67-1.274,0.955-2.26,0.852-2.957c-0.101-0.697-0.615-1.29-1.54-1.777c-0.973-0.513-1.797-0.597-2.476-0.257
					c-0.677,0.341-1.327,1.109-1.955,2.301l-0.739,1.403L300.851,226.208z"/>
			</g>
		</g>
		<polygon fill-rule="evenodd" clip-rule="evenodd" points="112.434,178.985 0,178.985 17.28,161.733 0,144.481 112.434,144.481 		
			"/>
		<g>
			
				<rect x="247.713" y="182.604" transform="matrix(-0.9401 -0.3409 0.3409 -0.9401 440.8782 443.3937)" fill-rule="evenodd" clip-rule="evenodd" fill="#FFFFFF" width="23.357" height="0.723"/>
		</g>
		<polygon fill-rule="evenodd" clip-rule="evenodd" points="246.964,178.985 359.397,178.985 342.117,161.733 359.397,144.481 
			246.964,144.481 		"/>
		<g>
			<path fill="#FFCC4E" d="M30.4,172.241v-3.483h2.488v-13.662H30.4v-3.483h18.185v6.56h-3.936v-3.077h-6.378v4.75h5.157v3.483
				h-5.157v5.429h6.378v-3.077h3.936v6.56H30.4z"/>
			<path fill="#FFCC4E" d="M54.32,172.241v-7.057h3.483c0.04,1.317,0.375,2.287,1.008,2.912c0.633,0.623,1.355,0.934,2.167,0.934
				c0.632,0,1.166-0.22,1.601-0.663c0.436-0.439,0.653-0.958,0.653-1.553c0-0.635-0.212-1.167-0.636-1.599
				c-0.424-0.431-1.2-0.922-2.328-1.472c-2.384-1.149-4.001-2.167-4.853-3.055s-1.276-2.083-1.276-3.588
				c0-1.814,0.562-3.22,1.686-4.217c1.123-0.997,2.401-1.496,3.832-1.496c1.637,0,2.904,0.654,3.801,1.959v-1.732h3.483v6.243
				h-3.483c-0.109-0.952-0.441-1.687-0.997-2.207c-0.556-0.519-1.204-0.779-1.942-0.779c-0.571,0-1.054,0.154-1.448,0.461
				c-0.393,0.309-0.589,0.709-0.589,1.205c0,0.427,0.163,0.832,0.488,1.212c0.326,0.382,1.278,0.924,2.859,1.626
				c1.521,0.683,2.69,1.298,3.505,1.846s1.46,1.259,1.935,2.133c0.475,0.873,0.712,1.883,0.712,3.028
				c0,2.035-0.593,3.565-1.78,4.591c-1.188,1.026-2.592,1.54-4.214,1.54c-1.811,0-3.205-0.665-4.184-1.998v1.728H54.32z"/>
			<path fill="#FFCC4E" d="M76.678,172.241v-3.483H79.8v-13.662h-3.122v4.795H73.15v-8.278h18.683v8.278H88.35v-4.795h-3.167v13.662
				h3.122v3.483H76.678z"/>
			<path fill="#FFCC4E" d="M96.425,172.241v-4.976h4.977v4.976H96.425z"/>
		</g>
		<g>
			<path fill="#FFCC4E" d="M259.847,172.106v-3.302h2.851v-14.024h-3.031v-3.302h7.555v17.326h2.715v3.302H259.847z"/>
			<path fill="#FFCC4E" d="M278.047,166.884l3.529-0.341c0.414,1.75,1.207,2.623,2.373,2.623c1.839,0,2.888-1.968,3.146-5.905
				c-1.091,0.861-2.374,1.291-3.852,1.291c-1.537,0-2.847-0.576-3.93-1.729c-1.086-1.153-1.629-2.729-1.629-4.728
				c0-2.019,0.584-3.687,1.752-5.003c1.167-1.316,2.792-1.975,4.87-1.975c2.32,0,4.101,0.822,5.349,2.461
				c1.248,1.642,1.872,4.359,1.872,8.155c0,7.127-2.533,10.69-7.603,10.69c-1.653,0-3.012-0.466-4.075-1.398
				C278.786,170.091,278.185,168.711,278.047,166.884z M287.096,160.3v-0.222c0-1.581-0.249-2.919-0.75-4.015
				c-0.499-1.096-1.262-1.644-2.288-1.644c-0.644,0-1.164,0.309-1.566,0.926c-0.4,0.617-0.598,1.449-0.598,2.496
				c0,0.969,0.211,1.779,0.635,2.431c0.425,0.652,1.077,0.977,1.958,0.977C285.296,161.25,286.166,160.934,287.096,160.3z"/>
			<path fill="#FFCC4E" d="M311.448,156.625l-3.529,0.327c-0.419-1.749-1.224-2.624-2.417-2.624c-0.965,0-1.714,0.547-2.252,1.64
				c-0.537,1.093-0.819,2.525-0.849,4.295c0.959-0.91,2.179-1.366,3.655-1.366c1.594,0,2.936,0.55,4.026,1.65
				c1.091,1.1,1.637,2.695,1.637,4.785c0,2.33-0.581,4.095-1.74,5.293c-1.159,1.199-2.695,1.797-4.607,1.797
				c-2.519,0-4.389-0.839-5.615-2.518c-1.223-1.682-1.835-4.321-1.835-7.92c0-3.845,0.688-6.618,2.073-8.318
				c1.382-1.7,3.268-2.551,5.655-2.551C309.078,151.117,311.011,152.954,311.448,156.625z M302.401,163.181
				c0.047,2.288,0.316,3.849,0.807,4.686c0.489,0.838,1.184,1.255,2.082,1.255c0.662,0,1.197-0.297,1.606-0.89
				c0.41-0.595,0.616-1.476,0.616-2.644c0-1.088-0.247-1.91-0.734-2.464c-0.489-0.555-1.09-0.833-1.801-0.833
				C304.099,162.291,303.24,162.588,302.401,163.181z"/>
			<path fill="#FFCC4E" d="M328.336,161.318c2.383,0.91,3.574,2.613,3.574,5.108c0,1.832-0.616,3.288-1.85,4.373
				c-1.233,1.084-3.046,1.624-5.434,1.624c-2.387,0-4.184-0.575-5.389-1.729c-1.203-1.154-1.804-2.605-1.804-4.358
				c0-2.425,1.237-4.097,3.709-5.018c-2.05-1.151-3.075-2.74-3.075-4.766c0-1.617,0.592-2.928,1.775-3.932
				c1.188-1.001,2.806-1.504,4.858-1.504c2.121,0,3.757,0.499,4.901,1.498c1.146,0.998,1.719,2.28,1.719,3.849
				C331.322,158.539,330.328,160.157,328.336,161.318z M327.522,166.022c0-0.963-0.262-1.751-0.783-2.363
				c-0.523-0.61-1.207-0.916-2.051-0.916c-0.817,0-1.491,0.298-2.024,0.895c-0.531,0.597-0.796,1.391-0.796,2.384
				c0,0.984,0.264,1.761,0.791,2.333c0.525,0.57,1.201,0.856,2.029,0.856c0.823,0,1.503-0.286,2.036-0.856
				C327.257,167.783,327.522,167.006,327.522,166.022z M327.115,157.096c0-0.823-0.21-1.49-0.626-2.001
				c-0.416-0.51-1.012-0.766-1.787-0.766c-0.715,0-1.298,0.238-1.748,0.714c-0.453,0.476-0.679,1.175-0.679,2.098
				c0,0.773,0.214,1.418,0.647,1.934c0.432,0.517,1.026,0.773,1.779,0.773c0.734,0,1.321-0.252,1.758-0.758
				C326.896,158.584,327.115,157.919,327.115,157.096z"/>
		</g>
	</g>
</g>
<g id="Foreground">
</g>
</svg>
